<svg id="Layer_1" data-name="Layer 1" xmlns="http://www.w3.org/2000/svg" viewBox="0 0 46.06 742.87"><defs><style>.cls-1{fill:#fff;}</style></defs><title>wording-Artboard 17</title><path class="cls-1" d="M43.84,4.58v7.21L17.76,8.14V21.51l-6.66-.92V0Z"/><path class="cls-1" d="M15,45a13.28,13.28,0,0,1-3.28-4.65,13.74,13.74,0,0,1-1.16-5.43,13.21,13.21,0,0,1,.83-4.76,9.61,9.61,0,0,1,2.38-3.63,9.37,9.37,0,0,1,3.72-2.13,11.15,11.15,0,0,1,4.86-.3,13,13,0,0,1,4.86,1.64,13.68,13.68,0,0,1,3.72,3.17,13.94,13.94,0,0,1,2.38,4.3,15.16,15.16,0,0,1,.83,5,10.27,10.27,0,0,1-.83,4.25,7.54,7.54,0,0,1-2.38,3,9.18,9.18,0,0,1-3.72,1.6,14.51,14.51,0,0,1-4.86.07l-2.17-.32V30.71A4.67,4.67,0,0,0,17,32.07a4.5,4.5,0,0,0-1.18,3.26,5.69,5.69,0,0,0,.76,3,10,10,0,0,0,2,2.34Zm9.9-4.49a3.65,3.65,0,0,0,3-.74,3.54,3.54,0,0,0,1.25-2.91,5.56,5.56,0,0,0-.37-2.08,6,6,0,0,0-.95-1.62A5.32,5.32,0,0,0,26.48,32a5.23,5.23,0,0,0-1.6-.65Z"/><path class="cls-1" d="M28,67V60.86L20.53,59.8a11.46,11.46,0,0,0-1.69-.14,3.14,3.14,0,0,0-1.32.25,1.76,1.76,0,0,0-.86.88,4.07,4.07,0,0,0-.3,1.73A11.92,11.92,0,0,0,16.49,64,2.73,2.73,0,0,0,17,65.39l-5.78-.79a11.29,11.29,0,0,1-.55-2.47,22.84,22.84,0,0,1-.14-2.47,12.77,12.77,0,0,1,.37-3.19A6.26,6.26,0,0,1,12.09,54a4.51,4.51,0,0,1,2.1-1.43,7.08,7.08,0,0,1,3.15-.21L28,53.92V49.48l5.55.79v4.44l6.66.92v6.94l-6.66-.92v6.1Z"/><path class="cls-1" d="M30.8,75.66V69.74l13,5.27v6.66Z"/><path class="cls-1" d="M27,92.4a4.23,4.23,0,0,0,1.9-3.79,4.07,4.07,0,0,0-.42-1.76,1.74,1.74,0,0,0-1.43-1,1.07,1.07,0,0,0-1.23.69,10.86,10.86,0,0,0-.69,2.08l-.65,2.71A9,9,0,0,1,23.36,94a5.13,5.13,0,0,1-2,1.87,5.7,5.7,0,0,1-3.4.39,6.9,6.9,0,0,1-3.58-1.43,9.07,9.07,0,0,1-2.27-2.75,11.84,11.84,0,0,1-1.2-3.49,20.55,20.55,0,0,1-.35-3.7,16.71,16.71,0,0,1,.67-4.67,7.46,7.46,0,0,1,2.38-3.75l4.67,4.86a6,6,0,0,0-1.83,1.92,5.26,5.26,0,0,0-.62,2.66,6.84,6.84,0,0,0,.35,2.22,1.55,1.55,0,0,0,1.27,1.16,1.18,1.18,0,0,0,1.32-.67,8.54,8.54,0,0,0,.74-2.08l.65-2.73a10.22,10.22,0,0,1,1-2.68,4.9,4.9,0,0,1,2-1.92,5.37,5.37,0,0,1,3.4-.37A7.64,7.64,0,0,1,30,80.1a8.8,8.8,0,0,1,2.36,2.47,10.89,10.89,0,0,1,1.36,3.21,14.45,14.45,0,0,1,.44,3.51,15.33,15.33,0,0,1-.65,4.39,6.94,6.94,0,0,1-2.31,3.51Z"/><path class="cls-1" d="M35.33,133.61a6.15,6.15,0,0,0,2-2.36,7.9,7.9,0,0,0,.69-3.47,9.83,9.83,0,0,0-.79-3.88,10.78,10.78,0,0,0-2.2-3.31,12.62,12.62,0,0,0-3.35-2.45,13.26,13.26,0,0,0-4.21-1.32,11.62,11.62,0,0,0-4.23.12,8.86,8.86,0,0,0-3.33,1.48,7.15,7.15,0,0,0-2.2,2.64,7.89,7.89,0,0,0-.79,3.54,9,9,0,0,0,.92,4.07,9.56,9.56,0,0,0,2.59,3.19L16,137.22a15.36,15.36,0,0,1-4.3-5.87,17.65,17.65,0,0,1-1.39-6.75,18.86,18.86,0,0,1,1.2-6.91,13.31,13.31,0,0,1,3.45-5.11,13.13,13.13,0,0,1,5.43-2.91,17.49,17.49,0,0,1,7.12-.32,20.3,20.3,0,0,1,7.12,2.34,19,19,0,0,1,8.88,10.52,21.74,21.74,0,0,1,1.2,7.26,16.56,16.56,0,0,1-.25,2.84,14.22,14.22,0,0,1-.81,2.84,11.31,11.31,0,0,1-1.48,2.61,8.31,8.31,0,0,1-2.27,2.06Z"/><path class="cls-1" d="M22.34,139.9a13,13,0,0,1,4.86,1.64,13.68,13.68,0,0,1,3.72,3.17A14,14,0,0,1,33.3,149a15.16,15.16,0,0,1,.83,5,13.22,13.22,0,0,1-.83,4.76,9.84,9.84,0,0,1-2.38,3.65,9.26,9.26,0,0,1-3.72,2.15,11.2,11.2,0,0,1-4.86.3,12.81,12.81,0,0,1-4.86-1.67,13.84,13.84,0,0,1-6.1-7.49,15.17,15.17,0,0,1-.83-5,13.21,13.21,0,0,1,.83-4.76,9.61,9.61,0,0,1,2.38-3.63,9.37,9.37,0,0,1,3.72-2.13A11.15,11.15,0,0,1,22.34,139.9Zm0,6.94a5.21,5.21,0,0,0-4.12.86,4.59,4.59,0,0,0-1.57,3.86,6.09,6.09,0,0,0,1.57,4.32,6.76,6.76,0,0,0,4.12,2.06,5.16,5.16,0,0,0,4.12-.88A4.66,4.66,0,0,0,28,153.17a6,6,0,0,0-1.57-4.3A6.82,6.82,0,0,0,22.34,146.83Z"/><path class="cls-1" d="M33.58,170.05v6.66l-3.05-.42v.09a6.94,6.94,0,0,1,1.3,1.11A8.67,8.67,0,0,1,33,179.07a9,9,0,0,1,.83,2,8.4,8.4,0,0,1,.32,2.36,8.11,8.11,0,0,1-1,4.07,4.91,4.91,0,0,1-3.05,2.31,9.4,9.4,0,0,1,3.1,3.35,9.47,9.47,0,0,1,.92,4.32,7.85,7.85,0,0,1-.76,3.7,5.26,5.26,0,0,1-2.08,2.17,7.44,7.44,0,0,1-3.1.88,18,18,0,0,1-3.82-.14L11.1,202.24V195.3l13.09,1.8a4.83,4.83,0,0,0,2.71-.28A2.17,2.17,0,0,0,28,194.61a4.9,4.9,0,0,0-.39-2.06,4.25,4.25,0,0,0-1.09-1.46,4.93,4.93,0,0,0-1.62-.92,10,10,0,0,0-1.94-.46L11.1,188V181.1L23,182.77q.6.09,1.48.16a5.92,5.92,0,0,0,1.67-.09,2.6,2.6,0,0,0,1.34-.72,2.4,2.4,0,0,0,.55-1.76,4.69,4.69,0,0,0-.49-2.24,4.08,4.08,0,0,0-1.3-1.46,6,6,0,0,0-1.83-.83,15.29,15.29,0,0,0-2.13-.42L11.1,173.84v-6.94Z"/><path class="cls-1" d="M33.58,210.47v6.38l-3-.42v.09a7.23,7.23,0,0,1,1.23,1.25A11.59,11.59,0,0,1,33,219.51a10.64,10.64,0,0,1,.83,2.06,8.23,8.23,0,0,1,.32,2.31,10.76,10.76,0,0,1-.86,4.42,8.39,8.39,0,0,1-2.41,3.17,8.93,8.93,0,0,1-3.68,1.73,12.7,12.7,0,0,1-4.67.12A15.4,15.4,0,0,1,18,232a15,15,0,0,1-3.82-2.57,12.15,12.15,0,0,1-2.66-3.58,10,10,0,0,1-1-4.44,11.34,11.34,0,0,1,.67-4,5.07,5.07,0,0,1,2.29-2.73v-.09L.55,212.74V205.8Zm-11.24,4.81a5.21,5.21,0,0,0-4.12.86A4.59,4.59,0,0,0,16.65,220a6.09,6.09,0,0,0,1.57,4.32,6.76,6.76,0,0,0,4.12,2.06,5.16,5.16,0,0,0,4.12-.88A4.66,4.66,0,0,0,28,221.62a6,6,0,0,0-1.57-4.3A6.81,6.81,0,0,0,22.34,215.28Z"/><path class="cls-1" d="M46.06,240.35v6.94l-35-4.9v-6.94Z"/><path class="cls-1" d="M15,268.7A13.28,13.28,0,0,1,11.7,264a13.74,13.74,0,0,1-1.16-5.43,13.21,13.21,0,0,1,.83-4.76,9.61,9.61,0,0,1,2.38-3.63,9.37,9.37,0,0,1,3.72-2.13,11.15,11.15,0,0,1,4.86-.3,13,13,0,0,1,4.86,1.64,13.68,13.68,0,0,1,3.72,3.17,13.94,13.94,0,0,1,2.38,4.3,15.16,15.16,0,0,1,.83,5,10.27,10.27,0,0,1-.83,4.25,7.54,7.54,0,0,1-2.38,3,9.18,9.18,0,0,1-3.72,1.6,14.51,14.51,0,0,1-4.86.07l-2.17-.32V254.41A4.67,4.67,0,0,0,17,255.77,4.5,4.5,0,0,0,15.82,259a5.69,5.69,0,0,0,.76,3,10,10,0,0,0,2,2.34Zm9.9-4.49a3.65,3.65,0,0,0,3-.74,3.54,3.54,0,0,0,1.25-2.91,5.56,5.56,0,0,0-.37-2.08,6,6,0,0,0-.95-1.62,5.32,5.32,0,0,0-1.34-1.16,5.23,5.23,0,0,0-1.6-.65Z"/><path class="cls-1" d="M28,290.66v-6.11l-7.49-1.06a11.46,11.46,0,0,0-1.69-.14,3.14,3.14,0,0,0-1.32.25,1.76,1.76,0,0,0-.86.88,4.07,4.07,0,0,0-.3,1.73,11.92,11.92,0,0,0,.12,1.46,2.73,2.73,0,0,0,.53,1.41l-5.78-.79a11.29,11.29,0,0,1-.55-2.47,22.84,22.84,0,0,1-.14-2.47,12.77,12.77,0,0,1,.37-3.19,6.26,6.26,0,0,1,1.18-2.43,4.51,4.51,0,0,1,2.1-1.43,7.08,7.08,0,0,1,3.15-.21L28,277.62v-4.44l5.55.79v4.44l6.66.92v6.94l-6.66-.92v6.1Z"/><path class="cls-1" d="M15,313.14a13.28,13.28,0,0,1-3.28-4.65,13.74,13.74,0,0,1-1.16-5.43,13.21,13.21,0,0,1,.83-4.76,9.61,9.61,0,0,1,2.38-3.63,9.37,9.37,0,0,1,3.72-2.13,11.15,11.15,0,0,1,4.86-.3,13,13,0,0,1,4.86,1.64A13.68,13.68,0,0,1,30.92,297a14,14,0,0,1,2.38,4.3,15.16,15.16,0,0,1,.83,5,10.27,10.27,0,0,1-.83,4.25,7.54,7.54,0,0,1-2.38,3,9.18,9.18,0,0,1-3.72,1.6,14.51,14.51,0,0,1-4.86.07l-2.17-.32V298.85A4.66,4.66,0,0,0,17,300.21a4.5,4.5,0,0,0-1.18,3.26,5.69,5.69,0,0,0,.76,3,10,10,0,0,0,2,2.34Zm9.9-4.49a3.65,3.65,0,0,0,3-.74A3.54,3.54,0,0,0,29.14,305a5.56,5.56,0,0,0-.37-2.08,6,6,0,0,0-.95-1.62,5.32,5.32,0,0,0-1.34-1.16,5.23,5.23,0,0,0-1.6-.65Z"/><path class="cls-1" d="M37.46,335.11v-9.34l6.38.88v25.9l-6.38-.88v-9.34l-26.36-3.7v-7.21Z"/><path class="cls-1" d="M46.06,362.12l-15.54-2.17V360a5.32,5.32,0,0,1,1.3.95A7.06,7.06,0,0,1,33,362.46a8.49,8.49,0,0,1,.83,2,8.4,8.4,0,0,1,.32,2.36,9,9,0,0,1-.81,4.16,5,5,0,0,1-2.24,2.22,8.13,8.13,0,0,1-3.38.74,25.57,25.57,0,0,1-4.21-.28L11.1,371.92V365l11,1.53q1,.14,2,.23A5.57,5.57,0,0,0,26,366.6a2.76,2.76,0,0,0,1.43-.88,3,3,0,0,0,.55-2,4.69,4.69,0,0,0-.49-2.24,4.08,4.08,0,0,0-1.3-1.46,6,6,0,0,0-1.83-.83,15.27,15.27,0,0,0-2.13-.42L11.1,357.21v-6.94l35,4.9Z"/><path class="cls-1" d="M15,398.14a13.28,13.28,0,0,1-3.28-4.65,13.74,13.74,0,0,1-1.16-5.43,13.21,13.21,0,0,1,.83-4.76,9.61,9.61,0,0,1,2.38-3.63,9.37,9.37,0,0,1,3.72-2.13,11.15,11.15,0,0,1,4.86-.3,13,13,0,0,1,4.86,1.64A13.68,13.68,0,0,1,30.92,382a14,14,0,0,1,2.38,4.3,15.16,15.16,0,0,1,.83,5,10.27,10.27,0,0,1-.83,4.25,7.54,7.54,0,0,1-2.38,3,9.18,9.18,0,0,1-3.72,1.6,14.51,14.51,0,0,1-4.86.07l-2.17-.32V383.85A4.67,4.67,0,0,0,17,385.22a4.5,4.5,0,0,0-1.18,3.26,5.69,5.69,0,0,0,.76,3,10,10,0,0,0,2,2.34Zm9.9-4.49a3.65,3.65,0,0,0,3-.74A3.54,3.54,0,0,0,29.14,390a5.56,5.56,0,0,0-.37-2.08,6,6,0,0,0-.95-1.62,5.32,5.32,0,0,0-1.34-1.16,5.23,5.23,0,0,0-1.6-.65Z"/><path class="cls-1" d="M43.84,417.43v12.16a23,23,0,0,1-.46,4.74,9.42,9.42,0,0,1-1.6,3.72,6.71,6.71,0,0,1-3.05,2.27,9.69,9.69,0,0,1-4.83.32A12.46,12.46,0,0,1,29.09,439a9.74,9.74,0,0,1-3.1-3A11.94,11.94,0,0,1,24.35,432a23.49,23.49,0,0,1-.49-4.88v-5.27L11.1,420.07v-7.21ZM30,422.7v4.81a9.63,9.63,0,0,0,.18,1.9,5.81,5.81,0,0,0,.62,1.71,4.15,4.15,0,0,0,1.2,1.34,4,4,0,0,0,1.92.69,2.89,2.89,0,0,0,2-.3,3.23,3.23,0,0,0,1.18-1.34,5.83,5.83,0,0,0,.53-1.94,20.12,20.12,0,0,0,.12-2.1v-3.7Z"/><path class="cls-1" d="M13.92,455.12V455a7.81,7.81,0,0,1-2.59-3.42,11.46,11.46,0,0,1-.79-4.16,9.76,9.76,0,0,1,.44-3,6.5,6.5,0,0,1,1.32-2.38,5.15,5.15,0,0,1,2.17-1.46,6.33,6.33,0,0,1,3-.23,7.17,7.17,0,0,1,4.51,2.2,11.28,11.28,0,0,1,2.36,4.21,20.43,20.43,0,0,1,.9,5.09q.14,2.66.14,4.83a3.24,3.24,0,0,0,2.94-.92,4.15,4.15,0,0,0,1.09-3,7.37,7.37,0,0,0-.72-3.21,10.59,10.59,0,0,0-2-2.8l3.79-3.15a15,15,0,0,1,2.71,4.88,17.23,17.23,0,0,1,.9,5.48,13.26,13.26,0,0,1-.76,4.93,6,6,0,0,1-2.24,2.84A7.55,7.55,0,0,1,27.49,463a22.78,22.78,0,0,1-5-.25L11.1,461.13v-6.38Zm7-.74q0-.79-.07-2a10.7,10.7,0,0,0-.39-2.31,6,6,0,0,0-1-2,2.54,2.54,0,0,0-1.8-1,1.75,1.75,0,0,0-1.09.14,2.34,2.34,0,0,0-.76.65,2.57,2.57,0,0,0-.46,1,4.84,4.84,0,0,0-.14,1.13,7.45,7.45,0,0,0,.28,2,6.81,6.81,0,0,0,.79,1.8,4.75,4.75,0,0,0,1.3,1.36,4.06,4.06,0,0,0,1.85.69l1.48.18Z"/><path class="cls-1" d="M33.58,468.16v6.94L30,474.59v.09a10.36,10.36,0,0,1,3.12,3.05,7.35,7.35,0,0,1,1,4q0,.6,0,1.2A6,6,0,0,1,33.9,484l-6.34-.88a10.86,10.86,0,0,0,.35-1.43,9.06,9.06,0,0,0,.12-1.48,8,8,0,0,0-.55-3.24,4.89,4.89,0,0,0-1.55-2,7.26,7.26,0,0,0-2.38-1.13,22.43,22.43,0,0,0-3.05-.62L11.1,472V465Z"/><path class="cls-1" d="M28,501v-6.11l-7.49-1.06a11.47,11.47,0,0,0-1.69-.14,3.14,3.14,0,0,0-1.32.25,1.76,1.76,0,0,0-.86.88,4.07,4.07,0,0,0-.3,1.73,11.92,11.92,0,0,0,.12,1.46,2.73,2.73,0,0,0,.53,1.41l-5.78-.79a11.29,11.29,0,0,1-.55-2.47,22.83,22.83,0,0,1-.14-2.47,12.77,12.77,0,0,1,.37-3.19,6.26,6.26,0,0,1,1.18-2.43,4.51,4.51,0,0,1,2.1-1.43,7.08,7.08,0,0,1,3.15-.21L28,488v-4.44l5.55.79v4.44l6.66.92v6.94l-6.66-.92v6.1Z"/><path class="cls-1" d="M7.45,514.13q-1.8-.93-3.19-1.76a9.14,9.14,0,0,1-2.34-2,7.69,7.69,0,0,1-1.43-2.73A14.36,14.36,0,0,1,0,503.59a15,15,0,0,1,.83-5l5.69,1.71a7,7,0,0,0-.69,3.1,6.39,6.39,0,0,0,.25,1.94,3.77,3.77,0,0,0,.74,1.34,4.9,4.9,0,0,0,1.18,1q.69.42,1.62.92l1.3.69,22.66-6.66v7.49l-14.85,3.7v.09l14.85,7V528Z"/><path class="cls-1" d="M37.46,545.58v-9.34l6.38.88V563l-6.38-.88v-9.34l-26.36-3.7v-7.21Z"/><path class="cls-1" d="M22.34,556.35A13,13,0,0,1,27.19,558a13.68,13.68,0,0,1,3.72,3.17,13.94,13.94,0,0,1,2.38,4.3,15.16,15.16,0,0,1,.83,5,13.22,13.22,0,0,1-.83,4.76,9.84,9.84,0,0,1-2.38,3.65A9.26,9.26,0,0,1,27.19,581a11.2,11.2,0,0,1-4.86.3,12.81,12.81,0,0,1-4.86-1.67,13.84,13.84,0,0,1-6.1-7.49,15.17,15.17,0,0,1-.83-5,13.21,13.21,0,0,1,.83-4.76,9.61,9.61,0,0,1,2.38-3.63,9.37,9.37,0,0,1,3.72-2.13A11.15,11.15,0,0,1,22.34,556.35Zm0,6.94a5.21,5.21,0,0,0-4.12.86A4.59,4.59,0,0,0,16.65,568a6.09,6.09,0,0,0,1.57,4.32,6.76,6.76,0,0,0,4.12,2.06,5.16,5.16,0,0,0,4.12-.88A4.66,4.66,0,0,0,28,569.63a6,6,0,0,0-1.57-4.3A6.82,6.82,0,0,0,22.34,563.29Z"/><path class="cls-1" d="M13,607.18q-6.38-.88-9.69-4.56T0,592.38a25.14,25.14,0,0,1,.67-5.83,11.32,11.32,0,0,1,2.61-5L9,586.18a12.09,12.09,0,0,0-2.13,3.1,8.78,8.78,0,0,0-.79,3.79A7.06,7.06,0,0,0,7.65,598a6.5,6.5,0,0,0,4,2.08l2.17.32v-.09A8,8,0,0,1,11.49,597a10.3,10.3,0,0,1-.67-3.45,10.75,10.75,0,0,1,.86-4.42,8.37,8.37,0,0,1,2.4-3.17,8.93,8.93,0,0,1,3.68-1.73,12.68,12.68,0,0,1,4.67-.12,15.46,15.46,0,0,1,4.35,1.32A13.85,13.85,0,0,1,30.52,588a12.54,12.54,0,0,1,2.61,3.58,10,10,0,0,1,1,4.44,10.34,10.34,0,0,1-.32,2.68,9.1,9.1,0,0,1-.83,2.1,6.51,6.51,0,0,1-1.13,1.5,5.7,5.7,0,0,1-1.23.92v.09l3,.42v6.38ZM22.48,591a5.31,5.31,0,0,0-2.1.14,4.76,4.76,0,0,0-1.76.9,4.6,4.6,0,0,0-1.23,1.57,4.84,4.84,0,0,0-.46,2.15,5.67,5.67,0,0,0,.46,2.24A7,7,0,0,0,18.61,600a7.19,7.19,0,0,0,1.76,1.43,5.51,5.51,0,0,0,2.1.72,5.31,5.31,0,0,0,2.1-.14,4.76,4.76,0,0,0,1.76-.9,4.56,4.56,0,0,0,1.23-1.6,4.89,4.89,0,0,0,.46-2.13,5.63,5.63,0,0,0-.46-2.27,7.17,7.17,0,0,0-3-3.35A5.5,5.5,0,0,0,22.48,591Z"/><path class="cls-1" d="M15,633.82a13.28,13.28,0,0,1-3.28-4.65,13.74,13.74,0,0,1-1.16-5.43,13.21,13.21,0,0,1,.83-4.76,9.61,9.61,0,0,1,2.38-3.63,9.37,9.37,0,0,1,3.72-2.13,11.15,11.15,0,0,1,4.86-.3,13,13,0,0,1,4.86,1.64,13.68,13.68,0,0,1,3.72,3.17A13.94,13.94,0,0,1,33.3,622a15.16,15.16,0,0,1,.83,5,10.27,10.27,0,0,1-.83,4.25,7.54,7.54,0,0,1-2.38,3,9.18,9.18,0,0,1-3.72,1.6,14.51,14.51,0,0,1-4.86.07l-2.17-.32V619.53A4.67,4.67,0,0,0,17,620.89a4.5,4.5,0,0,0-1.18,3.26,5.69,5.69,0,0,0,.76,3,10,10,0,0,0,2,2.34Zm9.9-4.49a3.65,3.65,0,0,0,3-.74,3.54,3.54,0,0,0,1.25-2.91,5.56,5.56,0,0,0-.37-2.08,6,6,0,0,0-.95-1.62,5.32,5.32,0,0,0-1.34-1.16,5.23,5.23,0,0,0-1.6-.65Z"/><path class="cls-1" d="M28,655.79v-6.11l-7.49-1.06a11.46,11.46,0,0,0-1.69-.14,3.14,3.14,0,0,0-1.32.25,1.76,1.76,0,0,0-.86.88,4.07,4.07,0,0,0-.3,1.73,11.92,11.92,0,0,0,.12,1.46,2.73,2.73,0,0,0,.53,1.41l-5.78-.79a11.29,11.29,0,0,1-.55-2.47,22.84,22.84,0,0,1-.14-2.47,12.77,12.77,0,0,1,.37-3.19,6.26,6.26,0,0,1,1.18-2.43,4.51,4.51,0,0,1,2.1-1.43,7.08,7.08,0,0,1,3.15-.21L28,642.74V638.3l5.55.79v4.44l6.66.92v6.94l-6.66-.92v6.1Z"/><path class="cls-1" d="M46.06,668.32l-15.54-2.17v.09a5.32,5.32,0,0,1,1.3.95A7.06,7.06,0,0,1,33,668.67a8.49,8.49,0,0,1,.83,2,8.4,8.4,0,0,1,.32,2.36,9,9,0,0,1-.81,4.16,5,5,0,0,1-2.24,2.22,8.13,8.13,0,0,1-3.38.74,25.56,25.56,0,0,1-4.21-.28L11.1,678.12v-6.94l11,1.53q1,.14,2,.23A5.57,5.57,0,0,0,26,672.8a2.77,2.77,0,0,0,1.43-.88,3,3,0,0,0,.55-2,4.69,4.69,0,0,0-.49-2.24,4.08,4.08,0,0,0-1.3-1.46,6,6,0,0,0-1.83-.83,15.28,15.28,0,0,0-2.13-.42L11.1,663.42v-6.94l35,4.9Z"/><path class="cls-1" d="M15,704.35a13.28,13.28,0,0,1-3.28-4.65,13.74,13.74,0,0,1-1.16-5.43,13.21,13.21,0,0,1,.83-4.76,9.61,9.61,0,0,1,2.38-3.63,9.37,9.37,0,0,1,3.72-2.13,11.15,11.15,0,0,1,4.86-.3,13,13,0,0,1,4.86,1.64,13.68,13.68,0,0,1,3.72,3.17,13.94,13.94,0,0,1,2.38,4.3,15.16,15.16,0,0,1,.83,5,10.27,10.27,0,0,1-.83,4.25,7.54,7.54,0,0,1-2.38,3,9.18,9.18,0,0,1-3.72,1.6,14.51,14.51,0,0,1-4.86.07l-2.17-.32V690.05A4.67,4.67,0,0,0,17,691.42a4.5,4.5,0,0,0-1.18,3.26,5.69,5.69,0,0,0,.76,3,10,10,0,0,0,2,2.34Zm9.9-4.49a3.65,3.65,0,0,0,3-.74,3.54,3.54,0,0,0,1.25-2.91,5.56,5.56,0,0,0-.37-2.08,6,6,0,0,0-.95-1.62,5.32,5.32,0,0,0-1.34-1.16,5.23,5.23,0,0,0-1.6-.65Z"/><path class="cls-1" d="M33.58,711.79v6.94L30,718.22v.09a10.36,10.36,0,0,1,3.12,3.05,7.35,7.35,0,0,1,1,4q0,.6,0,1.2a6,6,0,0,1-.18,1.11l-6.34-.88a10.86,10.86,0,0,0,.35-1.43,9.06,9.06,0,0,0,.12-1.48,8,8,0,0,0-.55-3.24,4.89,4.89,0,0,0-1.55-2,7.26,7.26,0,0,0-2.38-1.13,22.43,22.43,0,0,0-3.05-.62l-9.39-1.3v-6.94Z"/><path class="cls-1" d="M15.08,731.12a5,5,0,0,1,1.67.58,5.22,5.22,0,0,1,1.36,1.09,4.84,4.84,0,0,1,.9,1.48,4.69,4.69,0,0,1,.32,1.71,3.52,3.52,0,0,1-1.25,2.82,3.69,3.69,0,0,1-3,.83,5.08,5.08,0,0,1-3-1.69,5.22,5.22,0,0,1-.9-1.48,4.52,4.52,0,0,1-.32-1.69,4,4,0,0,1,.32-1.62,3.29,3.29,0,0,1,.9-1.23,3.78,3.78,0,0,1,3-.81Zm6.84,8.65v-6.94l21.92,3.1v6.94Z"/></svg>