<svg id="Layer_1" data-name="Layer 1" xmlns="http://www.w3.org/2000/svg" xmlns:xlink="http://www.w3.org/1999/xlink" viewBox="0 0 738.06 206.36"><defs><style>.cls-1{fill:none;}.cls-2{clip-path:url(#clip-path);}.cls-3{fill:#fff;}</style><clipPath id="clip-path"><rect class="cls-1" x="-377.33" y="244.12" width="175.48" height="175.47"/></clipPath></defs><title>wording-Artboard 20</title><path class="cls-3" d="M0,185.93l28.24-25.36a52.82,52.82,0,0,0,4.31-4.42,8.46,8.46,0,0,0,2.16-5.75A7,7,0,0,0,32,144.6a9.83,9.83,0,0,0-6.26-2.11A8.61,8.61,0,0,0,19,145.16a10.77,10.77,0,0,0-2.72,6.57L.92,150.61a25,25,0,0,1,2.36-9.81,20.6,20.6,0,0,1,5.44-6.93,22.91,22.91,0,0,1,8-4.16,34,34,0,0,1,9.91-1.39,30,30,0,0,1,9.24,1.39,21.54,21.54,0,0,1,7.5,4.11,18.71,18.71,0,0,1,5,6.83,23.68,23.68,0,0,1,1.8,9.55,25.67,25.67,0,0,1-.72,6.32,21.4,21.4,0,0,1-2,5.13,23.5,23.5,0,0,1-3,4.26,50,50,0,0,1-3.8,3.8l-22.08,19H50.73v13.55H0Z"/><path class="cls-3" d="M63.26,165.91a75.31,75.31,0,0,1,1.18-13.14,38.5,38.5,0,0,1,4.21-12.12,25.08,25.08,0,0,1,8.27-8.88q5.24-3.44,13.35-3.44t13.35,3.44a25.09,25.09,0,0,1,8.27,8.88,38.56,38.56,0,0,1,4.21,12.12,73.72,73.72,0,0,1,0,26.29,38.52,38.52,0,0,1-4.21,12.12,25.07,25.07,0,0,1-8.27,8.88q-5.24,3.44-13.35,3.44t-13.35-3.44a25.05,25.05,0,0,1-8.27-8.88,38.46,38.46,0,0,1-4.21-12.12A75.29,75.29,0,0,1,63.26,165.91Zm15.4,0q0,2.88.26,6.88a33.53,33.53,0,0,0,1.39,7.7,16.34,16.34,0,0,0,3.44,6.26,8.32,8.32,0,0,0,6.52,2.57,8.36,8.36,0,0,0,6.47-2.57,16,16,0,0,0,3.49-6.26,33.69,33.69,0,0,0,1.39-7.7q.26-4,.26-6.88t-.26-6.88a33.68,33.68,0,0,0-1.39-7.7,16,16,0,0,0-3.49-6.26,8.36,8.36,0,0,0-6.47-2.57,8.32,8.32,0,0,0-6.52,2.57,16.35,16.35,0,0,0-3.44,6.26,33.53,33.53,0,0,0-1.39,7.7Q78.66,163,78.66,165.91Z"/><path class="cls-3" d="M150.23,146.81l-14.58,12.84-8.73-10.06,23.72-20H165v72.7H150.23Z"/><path class="cls-3" d="M215,143.73H179.09V129.56h53.19v13.56l-29.06,59.15h-18Z"/><path class="cls-3" d="M233.62,193.43a9.61,9.61,0,0,1,.72-3.7,9.08,9.08,0,0,1,5-5,9.86,9.86,0,0,1,7.39,0,9.08,9.08,0,0,1,5,5,9.87,9.87,0,0,1,0,7.39,9.08,9.08,0,0,1-5,5,9.86,9.86,0,0,1-7.39,0,9.08,9.08,0,0,1-5-5A9.6,9.6,0,0,1,233.62,193.43Z"/><path class="cls-3" d="M273.87,129.56h24a68.67,68.67,0,0,1,16.58,2,38,38,0,0,1,13.71,6.32,31,31,0,0,1,9.29,11.35q3.44,7,3.44,16.94a34.58,34.58,0,0,1-3.34,15.56,33.45,33.45,0,0,1-9,11.3,39.7,39.7,0,0,1-13,6.93,50.62,50.62,0,0,1-15.51,2.36H273.87Zm16,57.92h8.32a44.71,44.71,0,0,0,10.32-1.13,22.05,22.05,0,0,0,8.27-3.75,18,18,0,0,0,5.49-6.88,24.4,24.4,0,0,0,2-10.42,20.33,20.33,0,0,0-2-9.29,18.59,18.59,0,0,0-5.39-6.52,23.65,23.65,0,0,0-8-3.85,35.39,35.39,0,0,0-9.6-1.28h-9.45Z"/><path class="cls-3" d="M397.1,193.63a24.57,24.57,0,0,1-9.35,7.29A28,28,0,0,1,376,203.49a31.46,31.46,0,0,1-10.83-1.85,26.06,26.06,0,0,1-8.83-5.29,24.79,24.79,0,0,1-5.9-8.27,28,28,0,0,1,0-21.56,24.83,24.83,0,0,1,5.9-8.27,26.08,26.08,0,0,1,8.83-5.29A31.44,31.44,0,0,1,376,151.12a24.64,24.64,0,0,1,9.7,1.85,20.22,20.22,0,0,1,7.39,5.29,24.13,24.13,0,0,1,4.67,8.27,33.36,33.36,0,0,1,1.64,10.78v4.83H363.72a12.19,12.19,0,0,0,4,7,11.32,11.32,0,0,0,7.6,2.62,11.57,11.57,0,0,0,6.42-1.69,17.25,17.25,0,0,0,4.57-4.36Zm-13-22a8.92,8.92,0,0,0-2.57-6.68,9.13,9.13,0,0,0-6.88-2.77,11.57,11.57,0,0,0-4.52.82,11.34,11.34,0,0,0-3.34,2.11,9.23,9.23,0,0,0-2.16,3,9.77,9.77,0,0,0-.87,3.54Z"/><path class="cls-3" d="M442.59,168.48a8.66,8.66,0,0,0-3.18-2.72,9.36,9.36,0,0,0-4.42-1.08q-5.85,0-9.09,3.49a14.53,14.53,0,0,0,0,18.28q3.24,3.49,9.09,3.49a8.3,8.3,0,0,0,4.42-1.13,13.46,13.46,0,0,0,3.18-2.67l10.17,10.68a19.64,19.64,0,0,1-8.47,5.19,31.88,31.88,0,0,1-9.29,1.49,31.46,31.46,0,0,1-10.83-1.85,26.06,26.06,0,0,1-8.83-5.29,24.79,24.79,0,0,1-5.9-8.27,28,28,0,0,1,0-21.56,24.83,24.83,0,0,1,5.9-8.27,26.08,26.08,0,0,1,8.83-5.29A31.44,31.44,0,0,1,435,151.12a31.88,31.88,0,0,1,9.29,1.49,19.66,19.66,0,0,1,8.47,5.19Z"/><path class="cls-3" d="M460.66,193.43a9.61,9.61,0,0,1,.72-3.7,9.08,9.08,0,0,1,5-5,9.86,9.86,0,0,1,7.39,0,9.08,9.08,0,0,1,5,5,9.87,9.87,0,0,1,0,7.39,9.08,9.08,0,0,1-5,5,9.86,9.86,0,0,1-7.39,0,9.08,9.08,0,0,1-5-5A9.6,9.6,0,0,1,460.66,193.43Z"/><path class="cls-3" d="M496.5,185.93l28.24-25.36a52.78,52.78,0,0,0,4.31-4.42,8.46,8.46,0,0,0,2.16-5.75,7,7,0,0,0-2.67-5.8,9.83,9.83,0,0,0-6.26-2.11,8.61,8.61,0,0,0-6.73,2.67,10.77,10.77,0,0,0-2.72,6.57l-15.4-1.13a25,25,0,0,1,2.36-9.81,20.6,20.6,0,0,1,5.44-6.93,22.91,22.91,0,0,1,8-4.16,34,34,0,0,1,9.91-1.39,30,30,0,0,1,9.24,1.39,21.54,21.54,0,0,1,7.5,4.11,18.71,18.71,0,0,1,5,6.83,23.67,23.67,0,0,1,1.8,9.55,25.67,25.67,0,0,1-.72,6.32,21.4,21.4,0,0,1-2,5.13,23.5,23.5,0,0,1-3,4.26,50,50,0,0,1-3.8,3.8l-22.08,19h32.24v13.55H496.5Z"/><path class="cls-3" d="M591.15,143.45l8.81,2.7-23.18,60.2-8.73-2.7Z"/><path class="cls-3" d="M632.34,160.92a8.59,8.59,0,0,0-4-2.74,14.29,14.29,0,0,0-4.75-.89,12.5,12.5,0,0,0-2.7.31,10.41,10.41,0,0,0-2.63,1,5.72,5.72,0,0,0-2,1.74,4.4,4.4,0,0,0-.77,2.63,4.35,4.35,0,0,0,1.85,3.79A17.53,17.53,0,0,0,622,169q2.82.93,6.07,1.85a25,25,0,0,1,6.07,2.63,14.38,14.38,0,0,1,4.68,4.56,13.9,13.9,0,0,1,1.85,7.65,17.6,17.6,0,0,1-1.7,8,16.15,16.15,0,0,1-4.6,5.64,19.55,19.55,0,0,1-6.72,3.32,30.83,30.83,0,0,1-18-.54,24.77,24.77,0,0,1-8.5-5.25l8.58-9.43a12.49,12.49,0,0,0,4.68,3.83,13.13,13.13,0,0,0,8.81,1,9.7,9.7,0,0,0,2.7-1,5.84,5.84,0,0,0,1.93-1.78,4.43,4.43,0,0,0,.73-2.55,4.63,4.63,0,0,0-1.89-3.9,17.47,17.47,0,0,0-4.75-2.43q-2.86-1-6.18-2a27.66,27.66,0,0,1-6.18-2.71,14.87,14.87,0,0,1-4.75-4.48,12.82,12.82,0,0,1-1.89-7.34,16.44,16.44,0,0,1,1.74-7.73,16.77,16.77,0,0,1,4.64-5.56,20.15,20.15,0,0,1,6.68-3.36,27.38,27.38,0,0,1,7.81-1.12,30.72,30.72,0,0,1,9,1.31,20.71,20.71,0,0,1,7.81,4.4Z"/><path class="cls-3" d="M667.66,147.55h10l23.8,54.71h-13.6l-4.71-11.59H661.86l-4.56,11.59H644Zm4.64,15.92-6.65,17H679Z"/><path class="cls-3" d="M710.39,158.21H694.78V147.55h43.28v10.66H722.45v44H710.39Z"/><path class="cls-3" d="M3.4.34h7.45a14.73,14.73,0,0,1,2.95.28,6.7,6.7,0,0,1,2.42,1,4.94,4.94,0,0,1,1.64,1.87,6.4,6.4,0,0,1,.61,3,6.83,6.83,0,0,1-.57,2.95,4.83,4.83,0,0,1-1.56,1.9,6.31,6.31,0,0,1-2.35,1,13.79,13.79,0,0,1-2.95.3H7.81v7.82H3.4Zm4.42,8.5h2.95a5.71,5.71,0,0,0,1.15-.11,3,3,0,0,0,1-.38,2,2,0,0,0,.71-.74,2.33,2.33,0,0,0,.27-1.18,2,2,0,0,0-.35-1.23,2.36,2.36,0,0,0-.91-.72,3.89,3.89,0,0,0-1.23-.33,12.68,12.68,0,0,0-1.3-.07H7.81Z"/><path class="cls-3" d="M21,.34h6.68l4.62,13.08h.06L37,.34h6.66V20.39H39.19V5h-.06L33.87,20.39H30.5L25.43,5h-.06V20.39H21Z"/><path class="cls-3" d="M61.62,5.1l-4,3.54L55.19,5.86,61.73.34h4V20.39H61.62Z"/><path class="cls-3" d="M84.59,4.08h-8l-.08,3.09a5.61,5.61,0,0,1,1.78-.23,8.33,8.33,0,0,1,2.8.45,6.21,6.21,0,0,1,2.19,1.32,6,6,0,0,1,1.43,2.1,7.16,7.16,0,0,1,.51,2.76,7.52,7.52,0,0,1-.58,3,6.47,6.47,0,0,1-1.6,2.25,6.92,6.92,0,0,1-2.42,1.4,9.31,9.31,0,0,1-3,.48,7.23,7.23,0,0,1-4.36-1.27,6.52,6.52,0,0,1-2.41-3.85l4.45-1a2.87,2.87,0,0,0,.91,1.74A2.65,2.65,0,0,0,78,17a2.85,2.85,0,0,0,2.17-.85A3,3,0,0,0,81,14a3,3,0,0,0-.41-1.63,3.1,3.1,0,0,0-1.08-1A4.51,4.51,0,0,0,78,10.82a9.71,9.71,0,0,0-1.64-.14,11.53,11.53,0,0,0-2.11.2,14.51,14.51,0,0,0-2.05.54L72.47.34H84.59Z"/><path class="cls-3" d="M88,18a2.65,2.65,0,0,1,.2-1,2.5,2.5,0,0,1,1.39-1.39,2.71,2.71,0,0,1,2,0A2.5,2.5,0,0,1,93,16.93a2.72,2.72,0,0,1,0,2,2.51,2.51,0,0,1-1.39,1.39,2.72,2.72,0,0,1-2,0A2.51,2.51,0,0,1,88.21,19,2.65,2.65,0,0,1,88,18Zm0-9.06a2.65,2.65,0,0,1,.2-1A2.5,2.5,0,0,1,89.6,6.49a2.72,2.72,0,0,1,2,0A2.5,2.5,0,0,1,93,7.87a2.72,2.72,0,0,1,0,2,2.5,2.5,0,0,1-1.39,1.39,2.72,2.72,0,0,1-2,0,2.5,2.5,0,0,1-1.39-1.39A2.65,2.65,0,0,1,88,8.89Z"/><path class="cls-3" d="M95.46,10.36a20.77,20.77,0,0,1,.33-3.63A10.62,10.62,0,0,1,96.95,3.4,6.92,6.92,0,0,1,99.23.95a7.62,7.62,0,0,1,7.36,0,6.92,6.92,0,0,1,2.28,2.45A10.64,10.64,0,0,1,110,6.74,20.32,20.32,0,0,1,110,14a10.63,10.63,0,0,1-1.16,3.34,6.92,6.92,0,0,1-2.28,2.45,7.62,7.62,0,0,1-7.36,0,6.92,6.92,0,0,1-2.28-2.45A10.61,10.61,0,0,1,95.79,14,20.77,20.77,0,0,1,95.46,10.36Zm4.25,0q0,.79.07,1.9a9.22,9.22,0,0,0,.38,2.12,4.49,4.49,0,0,0,.95,1.73,2.62,2.62,0,0,0,3.58,0,4.41,4.41,0,0,0,1-1.73,9.29,9.29,0,0,0,.38-2.12q.07-1.1.07-1.9T106,8.47a9.3,9.3,0,0,0-.38-2.12,4.42,4.42,0,0,0-1-1.73,2.62,2.62,0,0,0-3.58,0,4.51,4.51,0,0,0-.95,1.73,9.23,9.23,0,0,0-.38,2.12Q99.71,9.57,99.71,10.36Z"/><path class="cls-3" d="M111.94,10.36a20.77,20.77,0,0,1,.33-3.63,10.62,10.62,0,0,1,1.16-3.34A6.92,6.92,0,0,1,115.71.95a7.62,7.62,0,0,1,7.36,0,6.92,6.92,0,0,1,2.28,2.45,10.64,10.64,0,0,1,1.16,3.34,20.32,20.32,0,0,1,0,7.25,10.63,10.63,0,0,1-1.16,3.34,6.92,6.92,0,0,1-2.28,2.45,7.62,7.62,0,0,1-7.36,0,6.92,6.92,0,0,1-2.28-2.45A10.61,10.61,0,0,1,112.27,14,20.77,20.77,0,0,1,111.94,10.36Zm4.25,0q0,.79.07,1.9a9.22,9.22,0,0,0,.38,2.12,4.49,4.49,0,0,0,.95,1.73,2.62,2.62,0,0,0,3.58,0,4.41,4.41,0,0,0,1-1.73,9.28,9.28,0,0,0,.38-2.12q.07-1.1.07-1.9t-.07-1.9a9.29,9.29,0,0,0-.38-2.12,4.42,4.42,0,0,0-1-1.73,2.62,2.62,0,0,0-3.58,0,4.51,4.51,0,0,0-.95,1.73,9.23,9.23,0,0,0-.38,2.12Q116.19,9.57,116.19,10.36Z"/><path class="cls-3" d="M143.26,15h-7v-3.4h7Z"/><path class="cls-3" d="M153.17,15.89l7.79-7a14.59,14.59,0,0,0,1.19-1.22,2.33,2.33,0,0,0,.59-1.59,1.93,1.93,0,0,0-.74-1.6,2.71,2.71,0,0,0-1.73-.58,2.37,2.37,0,0,0-1.86.74,3,3,0,0,0-.75,1.81l-4.25-.31a6.9,6.9,0,0,1,.65-2.7,5.68,5.68,0,0,1,1.5-1.91A6.31,6.31,0,0,1,157.78.38,9.36,9.36,0,0,1,160.51,0a8.27,8.27,0,0,1,2.55.38,5.93,5.93,0,0,1,2.07,1.13A5.16,5.16,0,0,1,166.5,3.4,6.53,6.53,0,0,1,167,6a7.08,7.08,0,0,1-.2,1.74,5.9,5.9,0,0,1-.55,1.42,6.49,6.49,0,0,1-.84,1.17,13.7,13.7,0,0,1-1,1l-6.09,5.24h8.89v3.74h-14Z"/><path class="cls-3" d="M176.42,5.1l-4,3.54L170,5.86,176.54.34h4V20.39h-4.08Z"/><path class="cls-3" d="M186.34,18a2.65,2.65,0,0,1,.2-1,2.5,2.5,0,0,1,1.39-1.39,2.71,2.71,0,0,1,2,0,2.5,2.5,0,0,1,1.39,1.39,2.72,2.72,0,0,1,0,2A2.51,2.51,0,0,1,190,20.36a2.72,2.72,0,0,1-2,0A2.51,2.51,0,0,1,186.53,19,2.65,2.65,0,0,1,186.34,18Zm0-9.06a2.65,2.65,0,0,1,.2-1,2.5,2.5,0,0,1,1.39-1.39,2.72,2.72,0,0,1,2,0,2.5,2.5,0,0,1,1.39,1.39,2.72,2.72,0,0,1,0,2A2.5,2.5,0,0,1,190,11.3a2.72,2.72,0,0,1-2,0,2.5,2.5,0,0,1-1.39-1.39A2.65,2.65,0,0,1,186.34,8.89Z"/><path class="cls-3" d="M193.78,10.36a20.77,20.77,0,0,1,.33-3.63,10.62,10.62,0,0,1,1.16-3.34A6.92,6.92,0,0,1,197.55.95a7.62,7.62,0,0,1,7.36,0,6.92,6.92,0,0,1,2.28,2.45,10.64,10.64,0,0,1,1.16,3.34,20.32,20.32,0,0,1,0,7.25,10.63,10.63,0,0,1-1.16,3.34,6.92,6.92,0,0,1-2.28,2.45,7.62,7.62,0,0,1-7.36,0,6.92,6.92,0,0,1-2.28-2.45A10.61,10.61,0,0,1,194.11,14,20.77,20.77,0,0,1,193.78,10.36Zm4.25,0q0,.79.07,1.9a9.22,9.22,0,0,0,.38,2.12,4.49,4.49,0,0,0,.95,1.73,2.62,2.62,0,0,0,3.58,0,4.41,4.41,0,0,0,1-1.73,9.28,9.28,0,0,0,.38-2.12q.07-1.1.07-1.9t-.07-1.9A9.29,9.29,0,0,0,204,6.34a4.42,4.42,0,0,0-1-1.73,2.62,2.62,0,0,0-3.58,0,4.51,4.51,0,0,0-.95,1.73,9.23,9.23,0,0,0-.38,2.12Q198,9.57,198,10.36Z"/><path class="cls-3" d="M210.26,10.36a20.78,20.78,0,0,1,.33-3.63,10.62,10.62,0,0,1,1.16-3.34A6.92,6.92,0,0,1,214,.95a7.62,7.62,0,0,1,7.36,0,6.92,6.92,0,0,1,2.28,2.45,10.64,10.64,0,0,1,1.16,3.34,20.32,20.32,0,0,1,0,7.25,10.63,10.63,0,0,1-1.16,3.34,6.92,6.92,0,0,1-2.28,2.45,7.62,7.62,0,0,1-7.36,0,6.92,6.92,0,0,1-2.28-2.45A10.61,10.61,0,0,1,210.59,14,20.77,20.77,0,0,1,210.26,10.36Zm4.25,0q0,.79.07,1.9a9.22,9.22,0,0,0,.38,2.12,4.5,4.5,0,0,0,.95,1.73,2.62,2.62,0,0,0,3.58,0,4.41,4.41,0,0,0,1-1.73,9.29,9.29,0,0,0,.38-2.12q.07-1.1.07-1.9t-.07-1.9a9.3,9.3,0,0,0-.38-2.12,4.42,4.42,0,0,0-1-1.73,2.62,2.62,0,0,0-3.58,0A4.51,4.51,0,0,0,215,6.34a9.23,9.23,0,0,0-.38,2.12Q214.51,9.57,214.51,10.36Z"/><path class="cls-3" d="M246.71,19.08c0-.43.06-.85.06-1.92V16.5a22,22,0,0,0-5.31-2.89l.83-3.16c.24.15.26.15.7.39a28.47,28.47,0,0,1,3.72,2.28c-.09-3.37-.11-3.83-.26-5.64a22.76,22.76,0,0,0-2.31,2.11L242.77,7a41.11,41.11,0,0,1,6.11-5l1.57,2.57c-.78.5-1,.65-1.59,1.06.41,3.35.54,5.59.76,11.75a11.43,11.43,0,0,0,.09,1.26Zm12.18-1.57a23.15,23.15,0,0,0-2.46-.11h-4a17.68,17.68,0,0,0-1.91.09c0-.41.06-1,.06-1.91V5.85c0-.91,0-1.48-.06-1.91a13.37,13.37,0,0,0,1.91.09h4a22.69,22.69,0,0,0,2.46-.11V6.86h-.78V14.6h.78Zm-3.37-2.89V6.83h-2.39v7.79Z"/><path class="cls-3" d="M269.65,15.26a13.26,13.26,0,0,0,.06-1.37,6.85,6.85,0,0,0-1.31.59L268,12.08v3.65h8.16a16.16,16.16,0,0,0,2.2-.09v3a20.06,20.06,0,0,0-2.39-.11h-8.79a14.17,14.17,0,0,0-1.68.07,18.76,18.76,0,0,0,.07-1.91V12.27h-.85v4.61a21.9,21.9,0,0,0,.11,2.37h-2.74a19.21,19.21,0,0,0,.11-2.37V12.27a8,8,0,0,0-1.26.11V9.29a7.54,7.54,0,0,0,1.26.11V4.64a18.81,18.81,0,0,0-.11-2.37h2.74a21.66,21.66,0,0,0-.11,2.37V9.4h.85V4.57a13.64,13.64,0,0,0-.07-1.74,14.77,14.77,0,0,0,1.68.07h8.42c2.18,0,2.68.57,2.68,3,0,.5,0,1.11-.06,1.78a7.17,7.17,0,0,0-2.65.63,16.09,16.09,0,0,0,.13-1.92c0-.54-.09-.67-.48-.67H268V9.57l.37-2.39.7.31.61.31a14.72,14.72,0,0,0-.06-1.54H272c0,.52-.06.8-.06,1.59V9.51h.89V7.88a10.18,10.18,0,0,0-.06-1.48h2.35a11.65,11.65,0,0,0-.06,1.54V9.51h.65c1,0,1.63,0,2.29-.09v2.92a19.49,19.49,0,0,0-2.29-.11h-.65v1.22c0,.8,0,1.09.06,1.68h-2.35a14.46,14.46,0,0,0,.06-1.74V12.23h-.89V14a10.79,10.79,0,0,0,.06,1.3Zm.06-4.83A8.69,8.69,0,0,0,268,9.75v2.18a8.5,8.5,0,0,1,1.68-.7Z"/><path class="cls-3" d="M281.6,12.4a5.7,5.7,0,0,0-1.18.11V9.32a5.77,5.77,0,0,0,1.17.11h.7V4.74a24.44,24.44,0,0,0-.11-2.55H285a21.48,21.48,0,0,0-.09,2.48V16.84c0,.87,0,1.68.09,2.5h-2.83c.07-.83.11-1.48.11-2.57V12.4Zm4.81,0a9.87,9.87,0,0,0-1.09.06v-3a6.58,6.58,0,0,0,1.09.06V5.22a16.27,16.27,0,0,0-.07-1.87,14.63,14.63,0,0,0,1.67.07h5.51c2.17,0,2.68.61,2.68,3.11,0,.43,0,.87-.06,1.61a8.73,8.73,0,0,0-2.72.67,14.84,14.84,0,0,0,.15-1.61c0-.78-.11-.94-.61-.94h-4V9.47h6.33a20.55,20.55,0,0,0,2.52-.13v3.18a20.66,20.66,0,0,0-2.5-.13H289v2.9h5a20.27,20.27,0,0,0,2.37-.09v3.11a22.66,22.66,0,0,0-2.35-.11h-6a16.43,16.43,0,0,0-1.67.07c.06-.65.07-1.2.07-2Z"/><path class="cls-3" d="M303.76,17c0,.83,0,1.52.09,2.28h-2.72a23.07,23.07,0,0,0,.11-2.5V12.27a10.93,10.93,0,0,0-1.37.11V9.31a10.64,10.64,0,0,0,1.37.11V4.77a22.18,22.18,0,0,0-.11-2.54h2.72c-.06.74-.09,1.48-.09,2.31V9.42h.7V5.66a18.37,18.37,0,0,0-.06-2c.67.06,1.22.07,1.8.07H310a15.56,15.56,0,0,0,1.81-.07,18.49,18.49,0,0,0-.07,2V7.29a11.67,11.67,0,0,0,2.5-5.61A16.9,16.9,0,0,0,317,3.09a15.15,15.15,0,0,1-3.9,6.37c.52,0,.83,0,1.17,0H315a15.32,15.32,0,0,0,2.17-.13V12.4a18.55,18.55,0,0,0-2.17-.13h-.78l-1.13-.06a14.14,14.14,0,0,1,3.9,6.13,13.52,13.52,0,0,0-2.65,1.41,12.82,12.82,0,0,0-2.63-5.4v1.5a14.24,14.24,0,0,0,.07,2l-.65-.06-1.17,0h-3.77a17.78,17.78,0,0,0-1.81.07,16.6,16.6,0,0,0,.07-2V12.27h-.7Zm2.72-2h.68V12.27h-.68ZM309,15h.7V12.27H309Zm-1.87-5.59V6.51h-.68V9.42Zm2.57,0V6.51H309V9.42Z"/><path class="cls-3" d="M333.68,4.75a16.59,16.59,0,0,0-.09-2.37h2.61a18,18,0,0,0-.11,2.33V16.1h.61V19a19.89,19.89,0,0,0-2.35-.09h-12.6c-.87,0-1.46,0-2,.07a20.47,20.47,0,0,0,.07-2.17V5a18.82,18.82,0,0,0-.11-2.42h2.59c-.06.67-.07,1.17-.07,2.33V16.1h11.49Zm-2,4.85a13,13,0,0,0,1.42-.06c0,.46-.06,1-.06,1.83v2.29c0,.81,0,1.37.06,1.83a14,14,0,0,0-1.42-.06h-2.28c-.56,0-.94,0-1.37.06a10.28,10.28,0,0,0,.06-1.24V10.79A9.88,9.88,0,0,0,328,9.55c.43,0,.78.06,1.41.06Zm-7.59,3.9c-.5,0-.91,0-1.35.06a13.09,13.09,0,0,0,.06-1.35V6.49a11.89,11.89,0,0,0-.06-1.35c.37,0,.8.06,1.35.06h2a14,14,0,0,0,1.43-.06c0,.5-.06,1.09-.06,1.91v4.59c0,.83,0,1.44.06,1.92-.39,0-.83-.06-1.43-.06Zm5.87-.33h1.15v-1.3H330Zm-5.26-2.11h.87V7.68h-.87Zm7-8.07a14,14,0,0,0,1.42-.06c0,.46-.06,1-.06,1.83V7.14c0,.81,0,1.37.06,1.83-.43,0-.78-.06-1.42-.06h-2.28c-.56,0-.94,0-1.37.06a10.72,10.72,0,0,0,.06-1.24V4.18A10.3,10.3,0,0,0,328,2.94c.41,0,.83.06,1.41.06ZM330,6.66h1.15V5.33H330Z"/><path class="cls-3" d="M339.74,16.45a4.56,4.56,0,0,0-1.07.09v-3a4.29,4.29,0,0,0,1.07.09V13a16,16,0,0,0-.07-1.76H342c0,.26,0,.44,0,.7.41.13.67.22,1,.35a10.69,10.69,0,0,0-.06-1.22h2.46q-.06.58-.06,1.44V18q0,.86.06,1.5h-2.46c0-.41.06-.87.06-1.46-.2.06-.37.11-1,.33,0,.41,0,.52.06.87h-2.39a16.67,16.67,0,0,0,.07-1.76Zm7.48,2.35c-.52,0-1,0-1.39.06,0-.39,0-.67,0-1.28v-5c0-.61,0-.89,0-1.28.41,0,.8.06,1.37.06h6.64a2.08,2.08,0,0,1,1.67.55c.33.37.44.81.44,1.83,0,.2,0,.2,0,1.26a9.72,9.72,0,0,0-2.28.37,4.73,4.73,0,0,0,.09-.94c0-.39,0-.46-.26-.46h-.59v2.13h1c1.09,0,1.48,0,2.17-.07v2.85a16.91,16.91,0,0,0-2.17-.09Zm1.39-2.68V14h-.68v2.13Zm2.48,0V14h-.68v2.13ZM343,14.75c-.33-.11-.63-.2-1-.3v1.37c.37-.11.65-.18,1-.26Zm-.83-6.87V4.07a11.59,11.59,0,0,0,0-1.31,11.79,11.79,0,0,0,1.28.06h1.54a13.06,13.06,0,0,0,1.31-.06,11,11,0,0,0,0,1.28V7.88h.52v-4a10.74,10.74,0,0,0-.06-1.24h1.85a10.09,10.09,0,0,0-.06,1.24v4H349v-4A10.23,10.23,0,0,0,349,2.66h1.85a11,11,0,0,0-.06,1.26v4h.56v-4a10.63,10.63,0,0,0-.06-1.26h1.17a5.65,5.65,0,0,0,.11-.7c1.79.13,2.44.35,2.92,1s.5,1.2.5,3.77-.09,3-.56,3.48-.78.46-1.72.46h-7.92c-.52,0-1,0-1.37.06a12.07,12.07,0,0,0,0-1.33V5.53h-.52V9.32a12.08,12.08,0,0,0,0,1.35c-.41,0-.78-.06-1.37-.06h-2.39a9.14,9.14,0,0,0-1.52.11V7.81a6,6,0,0,0,.89.07V3.81a10.9,10.9,0,0,0-.07-1.37h2.2a9.67,9.67,0,0,0-.07,1.37V7.88Zm11.23,0c.43,0,.43,0,.43-1.89,0-1.35-.06-1.44-.76-1.54V7.88Z"/><path class="cls-3" d="M360.3,12.36a14.07,14.07,0,0,0-2,.13V9.23a14.05,14.05,0,0,0,2,.13h11.18V5.77H363.3c-.67,0-1.22,0-1.81.09V2.74c.65.06,1.22.09,1.83.09h9.49a24.32,24.32,0,0,0,2.59-.13V5.77h-1.09v9.92h1.09v3a23.45,23.45,0,0,0-2.57-.09h-9.49c-.61,0-1.24,0-1.85.09V15.62a16,16,0,0,0,1.83.07h8.16V12.36Z"/><path class="cls-3" d="M387.29,15.89c0,.78,0,1.48.07,2a17.68,17.68,0,0,0-1.89-.07h-5.29a19.16,19.16,0,0,0-2,.07c.06-.65.07-1.11.07-2V5.68c0-.93,0-1.35-.07-2a17.68,17.68,0,0,0,2,.07h5.29a16.25,16.25,0,0,0,1.89-.07c-.06.57-.07,1.17-.07,2V9.38h1V5.16a14.59,14.59,0,0,0-.09-2.09h2.65c-.06.68-.09,1.35-.09,2.09V9.38h1V4.55a17.29,17.29,0,0,0-.11-2.29h2.76a23,23,0,0,0-.11,2.39V16.91a23,23,0,0,0,.11,2.39h-2.76a17.43,17.43,0,0,0,.11-2.31V12.25h-1v4.13c0,.76,0,1.44.09,2.11H388.2a14.74,14.74,0,0,0,.09-2.11V12.25h-1ZM380.8,15h.93V12.25h-.93Zm3.15,0h.94V12.25h-.94Zm-2.22-5.64V6.53h-.93V9.38Zm3.16,0V6.53h-.94V9.38Z"/><path class="cls-3" d="M406.72,15.89c0,.78,0,1.48.07,2a17.68,17.68,0,0,0-1.89-.07h-5.29a19.16,19.16,0,0,0-2,.07c.06-.65.07-1.11.07-2V5.68c0-.93,0-1.35-.07-2a17.68,17.68,0,0,0,2,.07h5.29a16.25,16.25,0,0,0,1.89-.07c-.06.57-.07,1.17-.07,2V9.38h1V5.16a14.59,14.59,0,0,0-.09-2.09h2.65c-.06.68-.09,1.35-.09,2.09V9.38h1V4.55a17.31,17.31,0,0,0-.11-2.29h2.76a23,23,0,0,0-.11,2.39V16.91a23,23,0,0,0,.11,2.39h-2.76a17.44,17.44,0,0,0,.11-2.31V12.25h-1v4.13c0,.76,0,1.44.09,2.11h-2.65a14.74,14.74,0,0,0,.09-2.11V12.25h-1Zm-6.5-.87h.93V12.25h-.93Zm3.15,0h.94V12.25h-.94Zm-2.22-5.64V6.53h-.93V9.38Zm3.16,0V6.53h-.94V9.38Z"/><path class="cls-3" d="M431.94,10c.63,2.44,1,4.05,1.46,6.59.15.78.2,1.15.35,1.89.06.2.06.26.11.44l-3,.54c0-.52-.06-.8-.17-1.78H419.56a20,20,0,0,0-2.37.11c.06-.7.07-1.2.07-2.31V6c0-1.07,0-1.55-.07-2.24a14,14,0,0,0,2.07.09h2.05a14.11,14.11,0,0,0,2-.09c0,.63-.06,1.26-.06,2.22V8.77c.67-.06.7-.06,1.28-.13l0-3.41a21.52,21.52,0,0,0-.11-2.59h2.78a25.67,25.67,0,0,0-.09,2.59V8a6.2,6.2,0,0,0,2.54-1.63,3.67,3.67,0,0,0,.83-1.22c0-.18-1-.41-2.42-.59a13.44,13.44,0,0,0,1.48-2.44c3.11.48,4.2,1.15,4.2,2.59a5.51,5.51,0,0,1-1.89,3.57A8.94,8.94,0,0,1,429.44,10Zm-11,4.83V6.66h-1.17v8.2Zm2.37,0h1.3l0-3.44c-.54.07-.54.07-1.28.13Zm7,0c-.28-1.63-.43-2.33-1-4.74a11.92,11.92,0,0,1-2.15.81v3.92Z"/><path class="cls-3" d="M445,16.17a23.46,23.46,0,0,0-2.42,3.52l-2.13-1.59a21.2,21.2,0,0,1,2.11-3.39h-1.81a18.53,18.53,0,0,0,.11-2.2V10.16h-1.52c.13,1.15.17,1.89.24,3.39a7.79,7.79,0,0,0-2.48.94,45.8,45.8,0,0,0-.76-7.37,9.23,9.23,0,0,0-.72-2.61l2.55-1.85a3.27,3.27,0,0,1,.07.37A36.32,36.32,0,0,1,439,7.29h1.83V4.46a18.43,18.43,0,0,0-.11-2.22h2.85a16.86,16.86,0,0,0-.11,2.2V7.29h1.7V4.66a14.93,14.93,0,0,0-.06-1.52,15.38,15.38,0,0,0,1.65.07h4.37c.78,0,1.44,0,2-.09V6h-.78v5.24h.78v2.83c-.63,0-1.39-.07-2-.07h-4.44c-.56,0-1.11,0-1.55.06,0-.44.06-.87.06-1.57V10.16h-1.7v2.33a18.85,18.85,0,0,0,.11,2.22h-.8Zm2-1.46a36.75,36.75,0,0,1,4.24,1.55c.11.06.74.35,1.87.93L451,19.65A19.16,19.16,0,0,0,445.4,17Zm-11.27,2.76a25.72,25.72,0,0,1,2.41-3.37l2.22,1.7a22.5,22.5,0,0,0-2.57,3.41Zm14.08-6.2V6H447.7v5.24Z"/><path class="cls-3" d="M458.79,4.07a15.62,15.62,0,0,0-.07-1.81c.81.07.81.07,3.66.11,5.48.07,8.22.33,9.14.87s1,1.15,1,3.31c0,.13,0,.33,0,.57a8.41,8.41,0,0,0-2.05.31,13.34,13.34,0,0,1,2.42,1.48,9.78,9.78,0,0,0-1.15,1c.37,3.74.41,4.27.65,7.94,0,.33.06.68.11,1.22l-2.59.41a15.23,15.23,0,0,0,0-1.54c0-.76,0-1.28,0-2.46h-.7v1.78c0,.65,0,1.2.06,1.79H467.2a15.51,15.51,0,0,0,.07-1.81V15.47h-.56v1.48c0,.91,0,1.31,0,1.89a14.15,14.15,0,0,0-1.76-.07h-2.44a14,14,0,0,0-1.72.07c0-.56.06-1,.06-1.89V15.47h-.54v2.05a16.06,16.06,0,0,0,.07,1.79h-2.18a15.86,15.86,0,0,0,.07-1.79V15.47h-.54c.06,1.39.07,2.39.09,3a9.31,9.31,0,0,0-1.94.85c0-4.09-.31-7.29-.76-8.4l2.09-1.39c0,.09,0,.13,0,.26l0,.28a5.45,5.45,0,0,0,.07.57c.07.61.09.83.24,2.44h.68V11.29a13.56,13.56,0,0,0-.07-1.78h.5a6.47,6.47,0,0,0,.06-1V8.29h-1.74a7.66,7.66,0,0,0-1.68.11V5.46a19.62,19.62,0,0,0,3.42.13Zm3.66,12.38h.63v-1h-.63Zm2,0h.67v-1h-.67ZM469,9.82c-1.7-.91-3.72-1.3-7.57-1.48a10.91,10.91,0,0,0,.06,1.17H460.4a5.4,5.4,0,0,0-.06,1.17v2.39h.54V11.25a14,14,0,0,0,0-1.48,11.13,11.13,0,0,0,1.61.06h2.66c.68,0,1.17,0,1.61,0,0,.46,0,.67,0,1.61v1.67h.56V11.62c0-.94,0-1.3-.06-1.79Zm-5.9,3.24v-1h-.63v1Zm2.07,0v-1h-.67v1Zm4.68,0c-.06-1.33-.06-1.33-.17-2.81l-.41-.26a5.51,5.51,0,0,0-.06.89v2.18Zm-8.42-7.4a23.65,23.65,0,0,1,8.4,1.5,5.65,5.65,0,0,0,.07-.81c0-.76-.22-.91-1.63-1.09a63.21,63.21,0,0,0-6.85-.39Z"/><path class="cls-3" d="M476.74,12.32a12.72,12.72,0,0,0-2.09.11V9.29a11.3,11.3,0,0,0,2,.11h.87V4.66a17.43,17.43,0,0,0-.07-1.94,15.53,15.53,0,0,0,1.78.07h6.13a13.68,13.68,0,0,0,2-.09v3h-1V9.4h3.26a17,17,0,0,0,2.48-.13v3.18a18.27,18.27,0,0,0-2.48-.13h-3.26v3.57h1v3a14.93,14.93,0,0,0-2-.09h-6.14a15.75,15.75,0,0,0-1.76.07c.06-.67.07-1.06.07-1.92V12.32Zm3.44,3.57h3.48V12.32h-3.48Zm3.48-10.23h-3.48V9.4h3.48Z"/><path class="cls-3" d="M507.43,19.76c-2.15-1.06-4.13-1.5-7.75-1.78l.68-2.74c4.33.31,6.25.7,8.62,1.76ZM499.31,8.33a25.07,25.07,0,0,0-2.87,6.53L494,13.25a32.38,32.38,0,0,1,2.57-6.62ZM508,11.64c.35,0,.43-.28.43-1.44s-.11-1.46-.43-1.61a9.9,9.9,0,0,0-3.68-.41,11.47,11.47,0,0,0,.94-2.65,28.52,28.52,0,0,0-4.76,2l-1.18-2.76a38.17,38.17,0,0,1,8-3.07l1.43,2.92c-1.2.28-1.7.39-2.74.7l.85.06a6.11,6.11,0,0,1,3.59,1c.7.67.89,1.55.89,4.13,0,2.11-.09,2.87-.39,3.37s-.85.76-2,.76h-8.61a13.83,13.83,0,0,0-2,.11V11.53a17,17,0,0,0,1.91.11Z"/><path class="cls-3" d="M526,18.48h-5.72V5H526V7.09h-2.55v9.26H526Z"/><path class="cls-3" d="M536.3,16.82c0-.31,0-.62,0-1.4V15a16,16,0,0,0-3.86-2.1l.61-2.3c.17.11.19.11.51.28a20.6,20.6,0,0,1,2.7,1.65c-.07-2.45-.08-2.79-.19-4.1a16.52,16.52,0,0,0-1.68,1.53l-1-1.84a29.89,29.89,0,0,1,4.44-3.65L539,6.3c-.57.36-.74.47-1.16.77.3,2.44.39,4.06.55,8.54a8.34,8.34,0,0,0,.07.92Zm8.85-1.14a16.87,16.87,0,0,0-1.79-.08h-2.92a12.78,12.78,0,0,0-1.39.07c0-.3,0-.71,0-1.39V7.2c0-.66,0-1.08,0-1.39a9.85,9.85,0,0,0,1.39.07h2.92a16.48,16.48,0,0,0,1.79-.08V7.94h-.56v5.62h.56Zm-2.45-2.1V7.92H541v5.66Z"/><path class="cls-3" d="M553,14.05a9.66,9.66,0,0,0,0-1,4.94,4.94,0,0,0-1,.43l-.27-1.75v2.65h5.93a11.66,11.66,0,0,0,1.6-.07v2.19a14.48,14.48,0,0,0-1.74-.08h-6.39a10.43,10.43,0,0,0-1.22.05A13.66,13.66,0,0,0,550,15.1V11.87h-.62v3.35a15.86,15.86,0,0,0,.08,1.72h-2a13.94,13.94,0,0,0,.08-1.72V11.87a5.74,5.74,0,0,0-.91.08V9.7a5.45,5.45,0,0,0,.91.08V6.33a13.63,13.63,0,0,0-.08-1.72h2a15.68,15.68,0,0,0-.08,1.72V9.79H550V6.27A9.94,9.94,0,0,0,550,5a10.53,10.53,0,0,0,1.22.05h6.12c1.59,0,2,.42,2,2.21,0,.36,0,.81,0,1.29a5.22,5.22,0,0,0-1.92.46,11.72,11.72,0,0,0,.09-1.4c0-.39-.07-.48-.35-.48H551.8V9.91l.27-1.74.51.23.44.23a10.75,10.75,0,0,0,0-1.12h1.71c0,.38,0,.58,0,1.16v1.2h.65V8.68a7.42,7.42,0,0,0,0-1.08H557a8.48,8.48,0,0,0,0,1.12V9.87h.47c.71,0,1.18,0,1.67-.07v2.13a14.16,14.16,0,0,0-1.67-.08h-.47v.89c0,.58,0,.79,0,1.22h-1.71a10.54,10.54,0,0,0,0-1.26v-.85h-.65v1.26a7.88,7.88,0,0,0,0,.94Zm0-3.51a6.32,6.32,0,0,0-1.22-.5v1.59a6.14,6.14,0,0,1,1.22-.51Z"/><path class="cls-3" d="M561.68,12a4.15,4.15,0,0,0-.86.08V9.73a4.2,4.2,0,0,0,.85.08h.51V6.4a17.81,17.81,0,0,0-.08-1.86h2.06a15.65,15.65,0,0,0-.07,1.8v8.85c0,.63,0,1.22.07,1.82H562.1c.05-.61.08-1.08.08-1.87V12Zm3.5,0a7.35,7.35,0,0,0-.79,0V9.8a4.68,4.68,0,0,0,.79,0V6.75a11.84,11.84,0,0,0-.05-1.36,10.64,10.64,0,0,0,1.21.05h4c1.57,0,2,.44,2,2.26,0,.31,0,.63,0,1.17a6.35,6.35,0,0,0-2,.48,10.83,10.83,0,0,0,.11-1.17c0-.57-.08-.69-.44-.69H567V9.84h4.6a14.9,14.9,0,0,0,1.83-.09v2.31a15,15,0,0,0-1.82-.09H567v2.11h3.65A14.73,14.73,0,0,0,572.4,14v2.26a16.72,16.72,0,0,0-1.71-.08h-4.36a11.87,11.87,0,0,0-1.21.05c0-.47.05-.87.05-1.48Z"/><path class="cls-3" d="M577.8,15.33c0,.61,0,1.1.07,1.65h-2a16.79,16.79,0,0,0,.08-1.82v-3.3a7.78,7.78,0,0,0-1,.08V9.72a7.58,7.58,0,0,0,1,.08V6.42a16.17,16.17,0,0,0-.08-1.84h2c0,.54-.07,1.08-.07,1.68V9.8h.51V7.07a13.37,13.37,0,0,0,0-1.45c.48,0,.89.05,1.3.05h2.74a11.33,11.33,0,0,0,1.32-.05,13.33,13.33,0,0,0-.05,1.45V8.25a8.49,8.49,0,0,0,1.82-4.08,12.24,12.24,0,0,0,2,1,11,11,0,0,1-2.84,4.63l.85,0H586a11.11,11.11,0,0,0,1.57-.09V12a13.43,13.43,0,0,0-1.57-.09h-.56l-.82,0a10.28,10.28,0,0,1,2.84,4.45,9.75,9.75,0,0,0-1.92,1,9.33,9.33,0,0,0-1.91-3.93v1.09a10.31,10.31,0,0,0,.05,1.47l-.47,0h-3.59a12.83,12.83,0,0,0-1.32.05,12.11,12.11,0,0,0,.05-1.45V11.87h-.51Zm2-1.47h.5v-2h-.5Zm1.86,0h.51v-2h-.51ZM580.27,9.8V7.69h-.5V9.8Zm1.87,0V7.69h-.51V9.8Z"/><path class="cls-3" d="M599.55,6.41a12.09,12.09,0,0,0-.07-1.72h1.9a13.09,13.09,0,0,0-.08,1.7v8.27h.44v2.09a14.33,14.33,0,0,0-1.71-.07h-9.16c-.63,0-1.06,0-1.48.05a14.89,14.89,0,0,0,.05-1.57V6.57a13.7,13.7,0,0,0-.08-1.76h1.88c0,.48-.05.85-.05,1.69v8.15h8.36ZM598.1,9.93a9.51,9.51,0,0,0,1,0c0,.34,0,.75,0,1.33v1.67c0,.59,0,1,0,1.33a10.18,10.18,0,0,0-1,0h-1.65c-.4,0-.69,0-1,0a7.5,7.5,0,0,0,0-.9V10.79a7.18,7.18,0,0,0,0-.9c.31,0,.57,0,1,0Zm-5.52,2.84c-.36,0-.66,0-1,0a9.56,9.56,0,0,0,0-1V7.67a8.69,8.69,0,0,0,0-1c.27,0,.58,0,1,0h1.47a10.22,10.22,0,0,0,1,0c0,.36,0,.79,0,1.39v3.34c0,.61,0,1,0,1.4-.28,0-.61,0-1,0Zm4.26-.24h.83v-.94h-.83ZM593,11h.63V8.53H593Zm5.07-5.87c.47,0,.75,0,1,0,0,.34,0,.75,0,1.33V8.14c0,.59,0,1,0,1.33-.31,0-.57,0-1,0h-1.65c-.4,0-.69,0-1,0a7.81,7.81,0,0,0,0-.9V6a7.48,7.48,0,0,0,0-.9c.3,0,.61,0,1,0Zm-1.25,2.66h.83v-1h-.83Z"/><path class="cls-3" d="M607.41,12.87A8.81,8.81,0,0,0,609.75,11a7.21,7.21,0,0,0,1.64,1.16A5.7,5.7,0,0,1,610,13c.4,0,.74,0,1.64,0h2.5a15.62,15.62,0,0,0,1.74-.08V15a12.17,12.17,0,0,0-1.74-.09h-1.86c-.51,0-1,0-1.47-.05a8,8,0,0,1,2.44,1.43,7.76,7.76,0,0,0-2.1,1,9.76,9.76,0,0,0-3.71-2.21v.24a12.27,12.27,0,0,0,.08,1.59h-2.1a12.11,12.11,0,0,0,.08-1.63V15h-.89a9.59,9.59,0,0,0-1.37.08V12.89a9.66,9.66,0,0,0,1.36.08h.9v-.3a11.13,11.13,0,0,0-.07-1.28h2.07a9.54,9.54,0,0,0-.07,1.25Zm-1.94-6.5a13.48,13.48,0,0,0-.08-1.72h2.1a13.71,13.71,0,0,0-.08,1.67v.82a10.73,10.73,0,0,0,1.88-.87,8.16,8.16,0,0,0,2.42-2,12.39,12.39,0,0,0,2.18,1.12,10.32,10.32,0,0,1-3.07,2c.38,0,.91-.05,1.26-.05h2.06a11.56,11.56,0,0,0,1.7-.09V9.4a16.24,16.24,0,0,0-1.7-.08h-1.9c-.31,0-.75,0-1.33-.05a10.07,10.07,0,0,1,3.23,2.13,6.23,6.23,0,0,0-1.87,1.2,9.58,9.58,0,0,0-2.89-2.23,9.82,9.82,0,0,0-2-.85v.3c0,.44,0,.93.07,1.33h-2.07c0-.42.07-.86.07-1.36v-.5h-.86a8.36,8.36,0,0,0-1.4.09V7.18a10.42,10.42,0,0,0,1.4.08h.86Z"/><path class="cls-3" d="M620,8.25a8.67,8.67,0,0,0,1.32-3.69,7.93,7.93,0,0,0,1.79,1,12.2,12.2,0,0,1-.54,1.55,5.94,5.94,0,0,0,.82,0h.19V5.92a7.89,7.89,0,0,0-.07-1.32h1.92a8,8,0,0,0-.07,1.3v.73a6.79,6.79,0,0,0,2-2.34,8.67,8.67,0,0,0,1.87,1,6.45,6.45,0,0,1-2.06,1.82l.61,0h1A5.74,5.74,0,0,0,630,7V9.11A6.78,6.78,0,0,0,628.8,9H628a5.85,5.85,0,0,1-.61,0,7.3,7.3,0,0,1,1.92,1.79,9,9,0,0,0-1.6,1l.48.22a4,4,0,0,1-1.08.83,5.73,5.73,0,0,1,.71,0h1.06a6.13,6.13,0,0,0,1.12-.07v2a5.54,5.54,0,0,0-1-.07h-.83a5.47,5.47,0,0,1-.63,0,6.17,6.17,0,0,1,1.9,1.65,8.37,8.37,0,0,0-1.8,1,7.1,7.1,0,0,0-2.19-2.19v.61a7.84,7.84,0,0,0,.07,1.28h-1.92a8,8,0,0,0,.07-1.32v-1h-.17a5.69,5.69,0,0,0-.78,0c.17.44.27.7.44,1.28a6.6,6.6,0,0,0-1.7,1A9.26,9.26,0,0,0,620,13.35v1.41a15.11,15.11,0,0,0,.08,1.72h-2a14.69,14.69,0,0,0,.08-1.72V11.91a5.39,5.39,0,0,0-.89.07V9.8a4.85,4.85,0,0,0,.89.08V6.79a14.15,14.15,0,0,0-.08-1.71h2A15.2,15.2,0,0,0,620,6.79Zm2.53-1.09a9.88,9.88,0,0,1-1.67,2.76h1.44a3.65,3.65,0,0,0,.87-.07V12a6.07,6.07,0,0,0-.85-.07h-1a2.27,2.27,0,0,1-.43,0,8.82,8.82,0,0,1,1.64,2.68v-1.8a4.36,4.36,0,0,0,.86.05h.17v-.4a7.35,7.35,0,0,0-.07-1.26h1.91a8.55,8.55,0,0,0-.05,1.18v.12a6,6,0,0,0,1.08-1.35,8.23,8.23,0,0,0,1,.59,8,8,0,0,0-2.09-2.21v.16a8.58,8.58,0,0,0,.05,1.17h-1.91a7.42,7.42,0,0,0,.07-1.29V9h-.17a4.68,4.68,0,0,0-.87.05Z"/><path class="cls-3" d="M636.46,14.6v.77c0,.43,0,.7.05,1.18-.47,0-.79-.05-1.39-.05h-1.94c-.55,0-1,0-1.39.05a13.73,13.73,0,0,0,.05-1.37V13a13,13,0,0,0-.05-1.4,13.15,13.15,0,0,0,1.39.05h.65a5.69,5.69,0,0,0-2.52-2l.36-2.19.63.35V6.65a6.07,6.07,0,0,0-.07-1.09l1.18-.93.79.46a12.61,12.61,0,0,1,2,1.49,11.28,11.28,0,0,0,.91-2.37,9.32,9.32,0,0,0,2,.65l-.13.35h3.51a12.72,12.72,0,0,0,1.52-.07V7.22h-.55V9.13h.56v2a10.84,10.84,0,0,0-1.3-.07h-3.63l.15.42a4.46,4.46,0,0,0-1.4.4h1.63a7.74,7.74,0,0,0-.05.91H641c-.08-.35-.16-.62-.36-1.3h1.87c.43,1.37.79,2.81,1.18,4.67a5.65,5.65,0,0,0,.16.62l-2.09.42a6.45,6.45,0,0,0,0-.66h-3.16a6.72,6.72,0,0,0-1.32.08V15a7.29,7.29,0,0,0,1.24.07h3c0-.18,0-.23-.08-.42Zm-1.71,0V13.49H633.6V14.6Zm2.74-2.42a10.31,10.31,0,0,0-1.18-2.56,6.71,6.71,0,0,1-.92.78c.23.3.31.42.55.77a6.17,6.17,0,0,0-.89.51h.07a11.71,11.71,0,0,0,1.37,0c0,.35,0,.59,0,1v.16h1.3a5.47,5.47,0,0,0,0-.79Zm1.16-5.93a13.43,13.43,0,0,1-1,1.83,10.75,10.75,0,0,1,1,1.71ZM634.05,9l.19.16a5,5,0,0,0,1-.94,5.12,5.12,0,0,0-1.17-.91Zm7.68.12V7.22h-1.25V9.13Z"/><path class="cls-3" d="M650.71,4.67A21.72,21.72,0,0,0,650.6,7v7.63a22.32,22.32,0,0,0,.11,2.33h-2.34a19.35,19.35,0,0,0,.11-2.33V7a17.47,17.47,0,0,0-.11-2.31Z"/><path class="cls-3" d="M660.8,11.32a4.4,4.4,0,0,0,.05-.79,6.84,6.84,0,0,0-1.2,1h.55c0,.4,0,.7,0,1.35v1.64H661V12.93a10.72,10.72,0,0,0,0-1.35h1.9c0,.4,0,.7,0,1.35v1.61h1c-.13-1.41-.17-1.74-.39-3.12h1.74c.28,1.2.4,1.88.59,3.13h.73a11,11,0,0,0,1.49-.08v2.17a10.94,10.94,0,0,0-1.48-.09H666c.05.35.05.35.08.47l-2.14.2a4.08,4.08,0,0,0,0-.44,2.18,2.18,0,0,0,0-.23h-6.7a10.26,10.26,0,0,0-1.22.05,16.08,16.08,0,0,0-.57-3.93,3.78,3.78,0,0,0-.27-.7l1.94-1c.07.32.07.35.17.86a24.64,24.64,0,0,1,.44,2.72h.62V12.92a10.84,10.84,0,0,0,0-1.36h.93a3.45,3.45,0,0,0-2.77-.87,3.58,3.58,0,0,0-.83.07,8.67,8.67,0,0,0,0-.9V7.26a7,7,0,0,0,0-1,9.58,9.58,0,0,0,1,0h1.88c.13,0,.17,0,.17-.19s-.05-.24-.17-.27a6.75,6.75,0,0,0-1.35-.07,5.47,5.47,0,0,0,.62-1.47,4.92,4.92,0,0,1,2.1.34c.46.24.58.59.58,1.64,0,1.53-.17,1.83-1,1.83h-1.86v.71a4.48,4.48,0,0,1,2.14.52,4,4,0,0,1,1.16.89V6.68a6.46,6.46,0,0,0,0-.89l.89-.91.63.32a14.57,14.57,0,0,1,2.76,1.6A8.17,8.17,0,0,0,666,4.19a6.92,6.92,0,0,0,2,.9,10,10,0,0,1-1.47,3.16,9.8,9.8,0,0,1,1.59,3.58,6.2,6.2,0,0,0-1.94,1,8.58,8.58,0,0,0-1-3,9.5,9.5,0,0,1-1.84,1.29l-.55-1.52v.71a7.25,7.25,0,0,0,.05,1Zm1.92-2.09a5.21,5.21,0,0,0,1.22-.91,5.3,5.3,0,0,0-1.22-.88Z"/><path class="cls-3" d="M677.87,12.68a1.43,1.43,0,0,0,.86-.38,2.09,2.09,0,0,0,.58-1.55c0-1-.52-1.71-1.35-1.71a1.17,1.17,0,0,0-1.16.73,3.87,3.87,0,0,0-.17,1.25c0,.52,0,1.13.08,1.65H674.4a11.87,11.87,0,0,0,.08-1.43c0-1.28-.43-1.91-1.29-1.91s-1.14.51-1.14,1.4a1.45,1.45,0,0,0,1.24,1.64l-.42,2.91a3.86,3.86,0,0,1-1.71-.9,4.81,4.81,0,0,1-1.35-3.7A4.89,4.89,0,0,1,671,7.25a2.73,2.73,0,0,1,4.59,1.56,3,3,0,0,1,.71-1.74,2.65,2.65,0,0,1,2-.89,3,3,0,0,1,1.79.54A3.37,3.37,0,0,1,681,8a7.26,7.26,0,0,1,.52,2.8,6.1,6.1,0,0,1-.75,3.14,3.64,3.64,0,0,1-1.74,1.39,5,5,0,0,1-.71.23Z"/><path class="cls-3" d="M684.13,14.08a8.77,8.77,0,0,0,.09-1.61V10.76a13.29,13.29,0,0,0-.05-1.67,20.88,20.88,0,0,0,2.17.09h7.05a15.44,15.44,0,0,0,2-.11V12a15.46,15.46,0,0,0-2-.11h-6.86v.54a14.21,14.21,0,0,0,.09,1.64Z"/><path class="cls-3" d="M698.26,14.08a8.77,8.77,0,0,0,.09-1.61V10.76a13.29,13.29,0,0,0-.05-1.67,20.88,20.88,0,0,0,2.17.09h7.05a15.44,15.44,0,0,0,2-.11V12a15.46,15.46,0,0,0-2-.11h-6.86v.54a14.21,14.21,0,0,0,.09,1.64Z"/><path class="cls-3" d="M717.77,10.22a16.57,16.57,0,0,1,5.42.74A3.57,3.57,0,0,0,720,9.73h-.28l0-1.56a1.94,1.94,0,0,0,.48,0,8.67,8.67,0,0,1,2.8.51,3.56,3.56,0,0,1,1.44,1.13A4.76,4.76,0,0,0,723.41,11a4.86,4.86,0,0,1,1.13.61A6.79,6.79,0,0,0,723.28,13a1.36,1.36,0,0,1,.65.39,2.07,2.07,0,0,1,.42,1.4c0,.09,0,.35,0,.67a5.16,5.16,0,0,0-1.84.43,5.72,5.72,0,0,0,.09-1c0-.28-.07-.38-.34-.46a9,9,0,0,0-1.55-.2v.74c.27.08.38.11.73.23l-.08,1.74a12.82,12.82,0,0,0-2.95-.83,8.42,8.42,0,0,0,.05,1h-1.79a8.2,8.2,0,0,0,.05-1.17V13.42a8.21,8.21,0,0,0-.05-1.17h1.79a7.89,7.89,0,0,0-.05,1.09v1.09l.66.12v-1a7.69,7.69,0,0,0-.05-1.12c.17,0,.17,0,1.87.13a14.78,14.78,0,0,1,2,.24,6.75,6.75,0,0,0-2.76-.82,38.78,38.78,0,0,0-4.28-.13,13.73,13.73,0,0,0-1.68.07,10.36,10.36,0,0,0,.05-1.26V9.54h-1.39a7.83,7.83,0,0,0-1,.05V7.69a2.47,2.47,0,0,0,.57.05V6.29A10.69,10.69,0,0,0,712.29,5h1.53c0,.35,0,.69,0,1.21V7.74h.44v-1a4.27,4.27,0,0,0-.07-1l1-1.18a4.13,4.13,0,0,0,.5.2,16.56,16.56,0,0,1,1.55.63,10.46,10.46,0,0,0-.58,1.44,2.84,2.84,0,0,0-.87-.44V8.06h.57l0-.55a2.49,2.49,0,0,0-.09-.63l1.37-.05a1.32,1.32,0,0,0,0,.23c0,.12,0,.27,0,.43l0,.58h.26c.26,0,.3-.11.3-.67a1.94,1.94,0,0,0-.09-.83c-.08-.12-.2-.15-.82-.15a3.61,3.61,0,0,0,.54-1.56c.79.08,1.18.23,1.4.55a4,4,0,0,1,.26,2c0,1.86-.15,2.11-1.17,2.11h-.52Zm-5.61,3.17a7.22,7.22,0,0,0-.05-1.06,9.76,9.76,0,0,0,1.2.05H715a9.52,9.52,0,0,0,1.18-.05q0,.42,0,1v2.21c0,.44,0,.83,0,1.12a10.28,10.28,0,0,0-1.18-.05H713.3a10.53,10.53,0,0,0-1.2.05,8.14,8.14,0,0,0,.05-1.13ZM713.81,15h.81V13.94h-.81Zm2.6-5.48h-.69v.67h.74Zm3.35-3.35c.28,0,.58.05.9.05h1.79c.19,0,.23,0,.23-.21s-.05-.23-.17-.27a3.94,3.94,0,0,0-1-.08h-.4a3.74,3.74,0,0,0,.48-1.28,4.49,4.49,0,0,1,2.14.34c.42.23.55.62.55,1.53,0,1.2-.24,1.56-1,1.56h-2.6a6.7,6.7,0,0,0-.9.05Z"/><path class="cls-3" d="M733.56,16.36V7.09H731V5h5.72V18.48H731V16.36Z"/><path class="cls-3" d="M3.79,44.45H16.14l8.53,24.17h.1l8.58-24.17H45.64v37H37.48V53.08h-.1l-9.73,28.4H21.42l-9.36-28.4H12v28.4H3.79Z"/><path class="cls-3" d="M52.54,44.45H60.7v37H52.54Z"/><path class="cls-3" d="M67.6,44.45H78.69L94.44,70.19h.1V44.45h8.16v37H92L75.87,55.12h-.1V81.48H67.6Z"/><path class="cls-3" d="M110,44.45h25.16V52h-17v6.9h16.06v7.53H118.18V74h17.94v7.53H110Z"/><path class="cls-3" d="M142.45,44.45h8.16V74h15.12v7.53H142.45Z"/><path class="cls-3" d="M170,44.45h25.16V52h-17v6.9h16.06v7.53H178.17V74h17.94v7.53H170Z"/><path class="cls-3" d="M226.34,54.08a8,8,0,0,0-3-2.25,9.84,9.84,0,0,0-4.05-.78,10.14,10.14,0,0,0-7.66,3.37,11.57,11.57,0,0,0-2.25,3.79,14.46,14.46,0,0,0,0,9.55,11.88,11.88,0,0,0,2.22,3.77A10.06,10.06,0,0,0,215,74a9.59,9.59,0,0,0,4.11.89,9.19,9.19,0,0,0,4.45-1,8.85,8.85,0,0,0,3.19-2.93l6.8,5.07a14.16,14.16,0,0,1-6,4.86,18.45,18.45,0,0,1-7.43,1.57,22.81,22.81,0,0,1-8-1.36,18.28,18.28,0,0,1-6.33-3.9A17.66,17.66,0,0,1,201.63,71a22.51,22.51,0,0,1,0-16.11,17.68,17.68,0,0,1,4.16-6.15,18.33,18.33,0,0,1,6.33-3.9,22.81,22.81,0,0,1,8-1.36,19.68,19.68,0,0,1,3.27.29,17.71,17.71,0,0,1,3.35.92,14.9,14.9,0,0,1,3.16,1.67A12.6,12.6,0,0,1,232.62,49Z"/><path class="cls-3" d="M244.6,51.67H234V44.45h29.29v7.22H252.76V81.48H244.6Z"/><path class="cls-3" d="M266.93,44.45h14.33a25.28,25.28,0,0,1,5.36.55,12.74,12.74,0,0,1,4.45,1.83,9.13,9.13,0,0,1,3,3.45,11.69,11.69,0,0,1,1.12,5.41,10.87,10.87,0,0,1-2,6.67,9.18,9.18,0,0,1-6,3.48l9.41,15.64h-9.78l-7.74-14.8h-4v14.8h-8.16Zm8.16,15.33h4.81q1.1,0,2.33-.08a7.3,7.3,0,0,0,2.22-.47A3.84,3.84,0,0,0,286.1,58a3.74,3.74,0,0,0,.65-2.35,3.91,3.91,0,0,0-.58-2.25,3.85,3.85,0,0,0-1.46-1.28,6.52,6.52,0,0,0-2-.6,16.59,16.59,0,0,0-2.25-.16h-5.34Z"/><path class="cls-3" d="M298.31,63a20.92,20.92,0,0,1,1.49-8.05A17.68,17.68,0,0,1,304,48.77a18.33,18.33,0,0,1,6.33-3.9,24.23,24.23,0,0,1,16,0,18.34,18.34,0,0,1,6.33,3.9,17.68,17.68,0,0,1,4.16,6.15,22.51,22.51,0,0,1,0,16.11,17.66,17.66,0,0,1-4.16,6.15,18.29,18.29,0,0,1-6.33,3.9,24.22,24.22,0,0,1-16,0,18.28,18.28,0,0,1-6.33-3.9A17.66,17.66,0,0,1,299.8,71,20.91,20.91,0,0,1,298.31,63Zm8.47,0a13.57,13.57,0,0,0,.81,4.79,10.94,10.94,0,0,0,2.33,3.77A10.62,10.62,0,0,0,313.56,74,13,13,0,0,0,323,74a10.62,10.62,0,0,0,3.64-2.48A11,11,0,0,0,329,67.75a14.45,14.45,0,0,0,0-9.55,10.93,10.93,0,0,0-2.33-3.79A10.63,10.63,0,0,0,323,51.93a13,13,0,0,0-9.47,0,10.62,10.62,0,0,0-3.64,2.48,10.91,10.91,0,0,0-2.33,3.79A13.63,13.63,0,0,0,306.79,63Z"/><path class="cls-3" d="M358.15,44.45h8.16v37h-8.16Z"/><path class="cls-3" d="M373.21,44.45H384.3L400,70.19h.1V44.45h8.16v37H397.64L381.48,55.12h-.1V81.48h-8.16Z"/><path class="cls-3" d="M439.53,54.08a8,8,0,0,0-3-2.25,9.84,9.84,0,0,0-4.05-.78,10.14,10.14,0,0,0-7.66,3.37,11.57,11.57,0,0,0-2.25,3.79,14.45,14.45,0,0,0,0,9.55,11.88,11.88,0,0,0,2.22,3.77A10.06,10.06,0,0,0,428.16,74a9.59,9.59,0,0,0,4.11.89,9.19,9.19,0,0,0,4.45-1,8.85,8.85,0,0,0,3.19-2.93L446.7,76a14.16,14.16,0,0,1-6,4.86,18.45,18.45,0,0,1-7.43,1.57,22.81,22.81,0,0,1-8-1.36,18.28,18.28,0,0,1-6.33-3.9A17.66,17.66,0,0,1,414.82,71a22.51,22.51,0,0,1,0-16.11A17.68,17.68,0,0,1,419,48.77a18.33,18.33,0,0,1,6.33-3.9,22.81,22.81,0,0,1,8-1.36,19.68,19.68,0,0,1,3.27.29,17.71,17.71,0,0,1,3.35.92,14.9,14.9,0,0,1,3.16,1.67A12.6,12.6,0,0,1,445.81,49Z"/><path class="cls-3" d="M449.78,77a4.9,4.9,0,0,1,.37-1.88,4.63,4.63,0,0,1,2.56-2.56,5,5,0,0,1,3.77,0A4.62,4.62,0,0,1,459,75.1a5,5,0,0,1,0,3.77,4.62,4.62,0,0,1-2.56,2.56,5,5,0,0,1-3.77,0,4.63,4.63,0,0,1-2.56-2.56A4.89,4.89,0,0,1,449.78,77Z"/><path class="cls-3" d="M480.54,44.45h13.76a27.2,27.2,0,0,1,5.44.52,12.38,12.38,0,0,1,4.47,1.8,9.14,9.14,0,0,1,3,3.45,11.83,11.83,0,0,1,1.12,5.47,12.62,12.62,0,0,1-1,5.44,8.92,8.92,0,0,1-2.88,3.5,11.65,11.65,0,0,1-4.34,1.86,25.43,25.43,0,0,1-5.44.55h-6V81.48h-8.16Zm8.16,15.69h5.44a10.52,10.52,0,0,0,2.12-.21,5.63,5.63,0,0,0,1.83-.71,3.78,3.78,0,0,0,1.31-1.36,4.3,4.3,0,0,0,.5-2.17,3.67,3.67,0,0,0-.65-2.27,4.35,4.35,0,0,0-1.67-1.33,7.16,7.16,0,0,0-2.28-.6,23.34,23.34,0,0,0-2.41-.13H488.7Z"/><path class="cls-3" d="M513,44.45H527.3a25.28,25.28,0,0,1,5.36.55,12.74,12.74,0,0,1,4.45,1.83,9.13,9.13,0,0,1,3,3.45,11.69,11.69,0,0,1,1.12,5.41,10.87,10.87,0,0,1-2,6.67,9.18,9.18,0,0,1-6,3.48l9.41,15.64h-9.78l-7.74-14.8h-4v14.8H513Zm8.16,15.33h4.81q1.1,0,2.33-.08a7.3,7.3,0,0,0,2.22-.47A3.84,3.84,0,0,0,532.14,58a3.74,3.74,0,0,0,.65-2.35,3.91,3.91,0,0,0-.58-2.25,3.85,3.85,0,0,0-1.46-1.28,6.52,6.52,0,0,0-2-.6,16.59,16.59,0,0,0-2.25-.16h-5.33Z"/><path class="cls-3" d="M546.65,44.45h25.16V52h-17v6.9h16.06v7.53H554.81V74h17.94v7.53h-26.1Z"/><path class="cls-3" d="M597.07,53.5a5.82,5.82,0,0,0-2.69-1.86,9.66,9.66,0,0,0-3.22-.6,8.43,8.43,0,0,0-1.83.21,7,7,0,0,0-1.78.65,3.87,3.87,0,0,0-1.36,1.18,3,3,0,0,0-.52,1.78,3,3,0,0,0,1.26,2.56,11.85,11.85,0,0,0,3.16,1.52q1.91.63,4.11,1.26A16.91,16.91,0,0,1,598.3,62a9.72,9.72,0,0,1,3.16,3.09,9.41,9.41,0,0,1,1.26,5.18,11.91,11.91,0,0,1-1.15,5.39,10.92,10.92,0,0,1-3.11,3.82,13.22,13.22,0,0,1-4.55,2.25,20.87,20.87,0,0,1-12.16-.37A16.78,16.78,0,0,1,576,77.77l5.81-6.38A8.46,8.46,0,0,0,585,74a9,9,0,0,0,3.95.92,8.91,8.91,0,0,0,2-.24,6.55,6.55,0,0,0,1.83-.71,4,4,0,0,0,1.31-1.2,3,3,0,0,0,.5-1.73,3.13,3.13,0,0,0-1.28-2.64,11.85,11.85,0,0,0-3.22-1.65q-1.94-.68-4.18-1.36a18.74,18.74,0,0,1-4.18-1.83,10.07,10.07,0,0,1-3.22-3,8.68,8.68,0,0,1-1.28-5,11.12,11.12,0,0,1,1.18-5.23,11.36,11.36,0,0,1,3.14-3.77A13.65,13.65,0,0,1,586,44.27a18.51,18.51,0,0,1,5.28-.76,20.79,20.79,0,0,1,6.07.89,14,14,0,0,1,5.28,3Z"/><path class="cls-3" d="M608.58,44.45h25.16V52h-17v6.9h16.06v7.53H616.74V74h17.94v7.53h-26.1Z"/><path class="cls-3" d="M640.69,44.45h11.09l15.74,25.73h.1V44.45h8.16v37H665.12L649,55.12h-.1V81.48h-8.16Z"/><path class="cls-3" d="M690,51.67H679.4V44.45h29.29v7.22H698.12V81.48H690Z"/><path class="cls-3" d="M730.6,53.5a5.82,5.82,0,0,0-2.69-1.86,9.66,9.66,0,0,0-3.22-.6,8.43,8.43,0,0,0-1.83.21,7,7,0,0,0-1.78.65,3.87,3.87,0,0,0-1.36,1.18,3,3,0,0,0-.52,1.78,3,3,0,0,0,1.26,2.56,11.85,11.85,0,0,0,3.16,1.52q1.91.63,4.11,1.26A16.91,16.91,0,0,1,731.83,62,9.72,9.72,0,0,1,735,65.06a9.41,9.41,0,0,1,1.26,5.18,11.91,11.91,0,0,1-1.15,5.39A10.92,10.92,0,0,1,732,79.44a13.22,13.22,0,0,1-4.55,2.25,20.87,20.87,0,0,1-12.16-.37,16.78,16.78,0,0,1-5.75-3.56l5.81-6.38A8.46,8.46,0,0,0,718.49,74a9,9,0,0,0,3.95.92,8.91,8.91,0,0,0,2-.24,6.55,6.55,0,0,0,1.83-.71,4,4,0,0,0,1.31-1.2,3,3,0,0,0,.5-1.73,3.13,3.13,0,0,0-1.28-2.64,11.85,11.85,0,0,0-3.22-1.65q-1.94-.68-4.18-1.36a18.74,18.74,0,0,1-4.18-1.83,10.07,10.07,0,0,1-3.22-3,8.68,8.68,0,0,1-1.28-5,11.12,11.12,0,0,1,1.18-5.23A11.36,11.36,0,0,1,715,46.54a13.65,13.65,0,0,1,4.52-2.27,18.51,18.51,0,0,1,5.28-.76,20.79,20.79,0,0,1,6.07.89,14,14,0,0,1,5.28,3Z"/></svg>