<svg id="Layer_1" data-name="Layer 1" xmlns="http://www.w3.org/2000/svg" viewBox="0 0 204 52.65"><defs><style>.cls-1{fill:#fff;}</style></defs><title>logo-Artboard 18</title><path class="cls-1" d="M21.52,36.11q1.14-1.67,5.27-8Q30.31,22.63,38,12.38q4.48-5.94,8.11-10Q48.31,0,50,0a2.12,2.12,0,0,1,1.6.68A1.78,1.78,0,0,1,52.16,2,9.26,9.26,0,0,1,50.7,5.84q-.29.53-2.92,5.16-4.7,8.33-6.37,11.88a133.69,133.69,0,0,0-6.72,16.61,23.37,23.37,0,0,0-1.24,6,5.92,5.92,0,0,0,.07.89q.18,1.39.18,1.64a2.85,2.85,0,0,1-.78,1.92,2,2,0,0,1-1.53.82,1.88,1.88,0,0,1-1.64-1.17,4.87,4.87,0,0,1-.53-2.49Q29.21,37,46,7.54q-8.79,9.39-19.46,26.89a24.48,24.48,0,0,1-3.88,5.16,4.42,4.42,0,0,1-2.85,1.32,2.12,2.12,0,0,1-2-1.17,3.73,3.73,0,0,1-.43-1.82Q17.4,29,28,9.93a62.6,62.6,0,0,0-6.9,8.5A168.59,168.59,0,0,0,10.32,36.75Q8.08,41.27,4.87,48.81q-1.6,3.84-3.7,3.84a1.08,1.08,0,0,1-.89-.46A1.14,1.14,0,0,1,0,51.41a15.22,15.22,0,0,1,1.32-3.7q2.81-6.65,4.31-9.57a167.83,167.83,0,0,1,18.11-28q4.38-5.48,6-7.12t2.88-1.67A2,2,0,0,1,34,2a2.26,2.26,0,0,1,.82,1.71,8.37,8.37,0,0,1-1.5,3.52,112,112,0,0,0-7.86,15.65A66.63,66.63,0,0,0,21.52,36.11Z"/><path class="cls-1" d="M52.69,25.9a1.26,1.26,0,0,1,1,.46,1.33,1.33,0,0,1,.28.78,4.8,4.8,0,0,1-1,2.14,65.55,65.55,0,0,0-5.26,9.43,79.31,79.31,0,0,0-3,7.83q-.57,1.78-1.78,1.78a1.36,1.36,0,0,1-1.14-.57,1.52,1.52,0,0,1-.39-1q0-1.07,2.28-7.12A49.35,49.35,0,0,1,49.45,29.1a19.83,19.83,0,0,1,1.92-2.53A1.84,1.84,0,0,1,52.69,25.9Zm6.76-13.2a1.43,1.43,0,0,1,1.6,1.64,5.32,5.32,0,0,1-1.56,3.31,4,4,0,0,1-2.88,1.74,1.39,1.39,0,0,1-1.1-.5,1.62,1.62,0,0,1-.43-1.14A5.42,5.42,0,0,1,57,14.12,3.8,3.8,0,0,1,59.45,12.7Z"/><path class="cls-1" d="M59.56,35c.31-.29.61-.57.89-.85q7.44-7.26,10-7.26,1.39,0,1.39,1.53A4.22,4.22,0,0,1,70.55,31q-6.8,7.94-6.79,14a7.15,7.15,0,0,0,1.07,3.74,2.78,2.78,0,0,1,.5,1.28,1.12,1.12,0,0,1-.43.82,1.46,1.46,0,0,1-1.1.5,2.87,2.87,0,0,1-2.45-1.85,8.65,8.65,0,0,1-1-4.23q0-4.8,3.63-10.64-4.84,3.1-9,11-1.07,1.88-2.28,1.88a1.29,1.29,0,0,1-1-.43,1.73,1.73,0,0,1-.5-1.28q0-1.92,4.38-10.07,2.35-4.41,3.7-6.41t2.31-2a1.26,1.26,0,0,1,.89.43,1.57,1.57,0,0,1,.5,1.14,4.52,4.52,0,0,1-1,2.24A37.94,37.94,0,0,0,59.56,35Z"/><path class="cls-1" d="M74.5,40.38V41a2.32,2.32,0,0,0,.39,1.35,3.26,3.26,0,0,0,2.92,1.32q4.45,0,10.28-6.83,1-1.17,1.74-1.17a.92.92,0,0,1,.71.39.91.91,0,0,1,.21.53q0,1.39-3.42,4.7a25.63,25.63,0,0,1-5.69,4.23A11.92,11.92,0,0,1,76,47.17a5.15,5.15,0,0,1-4.2-1.85,5.4,5.4,0,0,1-1-3.49q0-6,5.66-11.78,4.59-4.7,8-4.7a2.7,2.7,0,0,1,1.67.57,2.4,2.4,0,0,1,.92,2,9.17,9.17,0,0,1-1.74,4.62A18.54,18.54,0,0,1,74.5,40.38Zm.78-2.77a14.25,14.25,0,0,0,3.91-1.92,15.79,15.79,0,0,0,3.95-4.34,3,3,0,0,0,.53-1.53c0-.47-.23-.71-.68-.71a5,5,0,0,0-2.63,1.39A18.21,18.21,0,0,0,75.28,37.6Z"/><path class="cls-1" d="M97.55,35.4q-1.07,2.77-1.6,4.48a9.56,9.56,0,0,0-.53,2.38c0,.59.28.89.85.89q1.28,0,3.31-2.42a44,44,0,0,0,2.85-4.23q.74-1.21,1.57-1.21t.92.89q0,1.53-3.52,6.19-3.66,4.87-6.79,4.87a2.64,2.64,0,0,1-2.21-1.14,3.26,3.26,0,0,1-.6-2A18.36,18.36,0,0,1,93,38.6,87.24,87.24,0,0,1,96.59,30,119.86,119.86,0,0,1,109.08,8.86q5.08-6.69,8.43-6.69a2.16,2.16,0,0,1,1.74.82A2.79,2.79,0,0,1,120,4.87q0,5-8.89,16.58a85.85,85.85,0,0,1-9.53,10.32Q100.08,33.12,97.55,35.4Zm2.53-5.66a65,65,0,0,0,13.23-16q3-5,3-6.65,0-.78-.68-.78-2,0-7.12,7.79A111.32,111.32,0,0,0,100.08,29.74Z"/><path class="cls-1" d="M110.15,40.38V41a2.32,2.32,0,0,0,.39,1.35,3.26,3.26,0,0,0,2.92,1.32q4.45,0,10.28-6.83,1-1.17,1.74-1.17a.92.92,0,0,1,.71.39.91.91,0,0,1,.21.53q0,1.39-3.42,4.7a25.69,25.69,0,0,1-5.69,4.23,11.93,11.93,0,0,1-5.62,1.64,5.15,5.15,0,0,1-4.2-1.85,5.4,5.4,0,0,1-1-3.49q0-6,5.66-11.78,4.59-4.7,8-4.7a2.7,2.7,0,0,1,1.67.57,2.4,2.4,0,0,1,.92,2A9.18,9.18,0,0,1,121,32.52,18.55,18.55,0,0,1,110.15,40.38Zm.78-2.77a14.27,14.27,0,0,0,3.91-1.92,15.79,15.79,0,0,0,3.95-4.34,3,3,0,0,0,.53-1.53c0-.47-.23-.71-.68-.71A5,5,0,0,0,116,30.49,18.2,18.2,0,0,0,110.93,37.6Z"/><path class="cls-1" d="M140.25,25.15q2.81,0,2.81,3a8.58,8.58,0,0,1-2,5.23q-1.57,2-2.74,2-1,0-1-1.14a1.49,1.49,0,0,1,.28-1,10.71,10.71,0,0,1,.85-.82,7.58,7.58,0,0,0,1.32-1.81,2.92,2.92,0,0,0,.46-1.32c0-.38-.21-.57-.64-.57a4.61,4.61,0,0,0-2.28,1.18,21.4,21.4,0,0,0-4.84,5.91Q130,40,130,42.41a2.21,2.21,0,0,0,.46,1.39,2.13,2.13,0,0,0,1.82.93q2.24,0,5.3-2.78a34.72,34.72,0,0,0,4.38-4.77q.93-1.32,1.6-1.32a1,1,0,0,1,.71.36,1.15,1.15,0,0,1,.29.71q0,1.32-3.38,5.12-5.37,6-9.75,6a4.68,4.68,0,0,1-4-1.88,5.45,5.45,0,0,1-1-3.27q0-3.7,3.06-8.57a27.28,27.28,0,0,1,6.83-7.51A7.2,7.2,0,0,1,140.25,25.15Z"/><path class="cls-1" d="M160.31,24.3a57.82,57.82,0,0,0-4.27,8q-2.81,6.34-2.81,9.46a2.12,2.12,0,0,0,.37,1.35,1.36,1.36,0,0,0,1.12.46q1.78,0,4.31-3.34a42.78,42.78,0,0,0,2.85-4.13q.68-1.17,1.46-1.17a1.06,1.06,0,0,1,.78.32,1,1,0,0,1,.29.64q0,1.32-3.45,5.87-4.13,5.48-7.54,5.48a3.61,3.61,0,0,1-3-1.67,5.23,5.23,0,0,1-.75-3,25.77,25.77,0,0,1,2.49-10q.6-1.42,3.34-6.87a6.3,6.3,0,0,1-1.46.25,2.43,2.43,0,0,1-1.32-.36,1.45,1.45,0,0,1-.78-1.24,1.6,1.6,0,0,1,1-1.42,16.92,16.92,0,0,1,2.63-.46,18.7,18.7,0,0,0,2.49-.68,62.48,62.48,0,0,1,4.06-6.08,35,35,0,0,1,2.17-2.77,2.32,2.32,0,0,1,1.49-.89,1.3,1.3,0,0,1,.92.5,1.38,1.38,0,0,1,.43.93q0,.92-2,3.66a33.09,33.09,0,0,0-2,2.88,25.15,25.15,0,0,1,5.66-1.07q2,0,2,1.64a1.3,1.3,0,0,1-.68,1.21,5.75,5.75,0,0,1-1.85.36,35.39,35.39,0,0,0-5.37,1.35Q161.59,23.87,160.31,24.3Z"/><path class="cls-1" d="M171.55,35.51a69,69,0,0,1,8-7.29,33.09,33.09,0,0,1,3.49-2.38,3.62,3.62,0,0,1,1.17-.53c.35,0,.71.26,1.07.78a1.35,1.35,0,0,1,.32.78q0,.64-1.35,1.74-3.63,2.88-3.63,4.34c0,.55.31.82.92.82q1.53,0,5.26-2.52a2.07,2.07,0,0,1,1.07-.43.82.82,0,0,1,.57.28,1,1,0,0,1,.32.68q0,1.07-3,3.27a10.06,10.06,0,0,1-5.94,2.35,3.86,3.86,0,0,1-2.1-.6A1.91,1.91,0,0,1,177,35a3.83,3.83,0,0,1,.75-2,35.19,35.19,0,0,0-6.62,6.83,49.33,49.33,0,0,0-4.38,7.36q-.82,1.64-2,1.64t-1.32-1.24q0-1.21,2.06-6.48A49.28,49.28,0,0,1,171.84,29q2.06-2.67,3.45-2.67a1.43,1.43,0,0,1,.85.28,1.08,1.08,0,0,1,.46.89,2.92,2.92,0,0,1-.71,1.49L174,31.34A18.69,18.69,0,0,0,171.55,35.51Z"/><path class="cls-1" d="M201.08,24.26q2.92,0,2.92,3.56,0,4.73-4.38,12-4.77,7.86-9.21,7.86a3.18,3.18,0,0,1-3-1.92,5,5,0,0,1-.5-2.31A19.81,19.81,0,0,1,190,33.55a23.94,23.94,0,0,1,6.87-7.68A7.59,7.59,0,0,1,201.08,24.26Zm-3.7,13.45c-.59-.48-.89-.84-.89-1.1s.38-.71,1.14-1.57q3.2-3.59,3.2-5.8a1.07,1.07,0,0,0-.18-.57.94.94,0,0,0-.89-.53q-1.14,0-3.34,2.21a22.42,22.42,0,0,0-4.34,5.87,13.45,13.45,0,0,0-1.74,5.73,1.82,1.82,0,0,0,.32,1.07,1.39,1.39,0,0,0,1.17.64q1.71,0,3.66-2.56a11,11,0,0,0,1.39-2.21A7,7,0,0,0,197.38,37.71Z"/></svg>