<svg id="Layer_1" data-name="Layer 1" xmlns="http://www.w3.org/2000/svg" viewBox="0 0 112.25 45.9"><defs><style>.cls-1{fill:#fff;}</style></defs><title>logo-Artboard 19</title><path class="cls-1" d="M29.12,39.22h-.37v-.35l-.16.35h-.38l0,.13c-.1.23-.17.41-.22.53l-2.21,4.89-.16-.45L24.38,41c-.18-.51-.3-.85-.35-1l-.25-.74h-.44l-.1-.27,0,.27h-.33l-.15,2.21-.27,3.33-.12,1.06h.8v-.2c0-.28,0-.49,0-.62s0-.29,0-.43l.24-3.34c0-.24,0-.44,0-.59l1.87,5.19h.73L28,41.52l.41-.91c0,.3,0,.64,0,1l-.08,4.2h.81v-.21c0-.55,0-1.3,0-2.24,0-.29,0-.73,0-1.32Z"/><path class="cls-1" d="M30.76,39.23h-.39v.2c0,.21,0,.45,0,.7l0,.93-.09,2.73-.11,2h.8l0-1.37.11-3.38.1-1.85h-.4Z"/><path class="cls-1" d="M37.52,39.23h-.37l0,.89-.18,4.63-.39-.57L34.23,40.8c-.32-.45-.53-.75-.63-.9l-.37-.59-.06-.09h-.84l0,.92-.13,3.67-.11,2h.76l0-1.3L33,40.32l0,0,2.87,4.14.89,1.32h.44l0,0v0h.35l0-1.09.15-3.87.1-1.64h-.39Z"/><path class="cls-1" d="M39.25,39.23h-.19v.19c0,.71,0,1.73-.07,3s-.1,2.35-.15,3.17l0,.21h3.93v-.19c0-.08,0-.18,0-.3l0-.23-.23,0-.8,0H39.6l.08-2.35h2.93V42.6l0-.29,0-.21h-.22l-1.67,0-1.06,0,.08-2.23H42.4l.57.05v-.21a2.93,2.93,0,0,1,0-.3l0-.21H39.25Z"/><path class="cls-1" d="M46.58,45.13h-2.1L44.55,43l.17-3.75h-.78l0,1.7-.12,3.26-.11,1.63h3.8v-.19c0-.08,0-.19,0-.3l0-.22-.21,0Z"/><path class="cls-1" d="M48.31,39.23h-.19v.19c0,.71,0,1.73-.07,3s-.1,2.35-.16,3.17v.21h3.93v-.19c0-.08,0-.18,0-.3l0-.23-.23,0-.8,0H48.66l.08-2.35h2.93V42.6a1.33,1.33,0,0,1,0-.29l0-.21h-.22l-1.67,0-1.06,0,.08-2.23h2.61l.57.05v-.21c0-.08,0-.19,0-.3l0-.21H48.31Z"/><path class="cls-1" d="M54.08,40.5A2.23,2.23,0,0,1,55,40,3.35,3.35,0,0,1,56,39.79a4.16,4.16,0,0,1,.67.06,4.86,4.86,0,0,1,.83.21l.3.09,0-.3a3.13,3.13,0,0,1,0-.37v-.15l-.14,0-.49-.1-.47,0-.53,0a4.43,4.43,0,0,0-1.41.22,2.9,2.9,0,0,0-1.88,1.86,4.26,4.26,0,0,0-.24,1.44,3.91,3.91,0,0,0,.21,1.27A2.67,2.67,0,0,0,53.45,45a3,3,0,0,0,1.09.68,3.86,3.86,0,0,0,1.32.23,6.29,6.29,0,0,0,.75-.05,6.43,6.43,0,0,0,.89-.16l.13,0,0-.13a1.7,1.7,0,0,1,.05-.35l.08-.32-.32.1a5.54,5.54,0,0,1-1.62.29,3,3,0,0,1-1.06-.18,2.34,2.34,0,0,1-.82-.52,2.3,2.3,0,0,1-.51-.85,3.51,3.51,0,0,1-.17-1.1,3.35,3.35,0,0,1,.21-1.16A2.57,2.57,0,0,1,54.08,40.5Z"/><path class="cls-1" d="M60.41,39.23H58v.2c0,.08,0,.18,0,.3l0,.22h.22q.76,0,1.75,0l-.17,4.59-.08,1.34h.8V44.9a2,2,0,0,1,0-.2l.17-4.82h.08c.74,0,1.3,0,1.66,0l.2,0v-.21a1.86,1.86,0,0,1,0-.3l0-.21h-2.2Z"/><path class="cls-1" d="M65.87,42.54a1.89,1.89,0,0,0,.78-.72,1.93,1.93,0,0,0,.28-1,1.68,1.68,0,0,0-.19-.81,1.41,1.41,0,0,0-.54-.56,2.07,2.07,0,0,0-1-.2H63v.89l0,1-.13,3.42-.08,1.31h.81v-.2c0-.95,0-2.06.08-3.34l1.8,2.55.65,1h.95l-2.18-3A2.39,2.39,0,0,0,65.87,42.54Zm-2.08-2.66H65a3.6,3.6,0,0,1,.46,0,1.57,1.57,0,0,1,.33.09.71.71,0,0,1,.22.17.75.75,0,0,1,.16.28,1.15,1.15,0,0,1,.05.37,1.41,1.41,0,0,1-.11.57,1.17,1.17,0,0,1-.32.41,1.56,1.56,0,0,1-.51.27,2.43,2.43,0,0,1-.64.08,3.66,3.66,0,0,1-.67-.07l-.25,0C63.73,41.36,63.75,40.64,63.79,39.88Z"/><path class="cls-1" d="M73.18,40a2.8,2.8,0,0,0-1.08-.68,4,4,0,0,0-1.29-.21,4.27,4.27,0,0,0-1.36.22,2.92,2.92,0,0,0-1.14.69,3.09,3.09,0,0,0-.73,1.19,4.38,4.38,0,0,0-.25,1.44,4,4,0,0,0,.2,1.27A2.62,2.62,0,0,0,68.19,45a2.83,2.83,0,0,0,1.1.67,4.13,4.13,0,0,0,2.73,0,2.89,2.89,0,0,0,1.13-.71,3,3,0,0,0,.68-1.16A4.44,4.44,0,0,0,74,42.37a4.15,4.15,0,0,0-.19-1.27A2.69,2.69,0,0,0,73.18,40Zm-2.53,5.22a3.67,3.67,0,0,1-1-.15,2,2,0,0,1-.83-.48,2.11,2.11,0,0,1-.54-.84,3.19,3.19,0,0,1-.19-1.09,3.73,3.73,0,0,1,.18-1.17,2.52,2.52,0,0,1,.55-.95,2.27,2.27,0,0,1,.89-.59,3.44,3.44,0,0,1,1.12-.18,3.26,3.26,0,0,1,1,.17,2,2,0,0,1,.82.52,2.07,2.07,0,0,1,.5.86,3.65,3.65,0,0,1,.16,1.11,4,4,0,0,1-.17,1.17,2.38,2.38,0,0,1-.54.92,2.2,2.2,0,0,1-.86.54A3.61,3.61,0,0,1,70.65,45.24Z"/><path class="cls-1" d="M75.37,39.23H75v.2c0,.21,0,.45,0,.7v.93l-.09,2.73-.12,2h.8l0-1.37.11-3.38.09-1.85h-.41Z"/><path class="cls-1" d="M82.13,39.23h-.37l0,.89-.17,4.63-.4-.57L78.84,40.8l-.63-.9-.37-.59-.06-.09h-.83l0,.92-.13,3.67-.11,2h.76l0-1.3.16-4.19,0,0,2.88,4.14.89,1.32h.45l0,0v0h.35l0-1.09.15-3.87.1-1.64h-.39Z"/><path class="cls-1" d="M84.76,40.5a2.29,2.29,0,0,1,.88-.54,3.37,3.37,0,0,1,1.07-.18,4.21,4.21,0,0,1,.67.06,5,5,0,0,1,.83.21l.29.09,0-.3a2.16,2.16,0,0,1,0-.37v-.15l-.14,0-.49-.1-.47,0-.53,0a4.43,4.43,0,0,0-1.4.22,2.9,2.9,0,0,0-1.88,1.86,4.44,4.44,0,0,0-.24,1.44,3.91,3.91,0,0,0,.21,1.27A2.69,2.69,0,0,0,84.13,45a2.92,2.92,0,0,0,1.09.68,3.84,3.84,0,0,0,1.32.23,6.25,6.25,0,0,0,.74-.05,6.55,6.55,0,0,0,.9-.16l.13,0,0-.13a2,2,0,0,1,.06-.35l.07-.32-.31.1a5.53,5.53,0,0,1-1.62.29,3,3,0,0,1-1.06-.18,2.29,2.29,0,0,1-.82-.52,2.09,2.09,0,0,1-.51-.85,3.54,3.54,0,0,1-.17-1.1,3.37,3.37,0,0,1,.21-1.16A2.6,2.6,0,0,1,84.76,40.5Z"/><path class="cls-1" d="M89.45,44.93H89v.18c0,.07,0,.13,0,.21s0,.17,0,.29v.21h.88v-.18c0-.08,0-.16,0-.24s0-.17,0-.25l0-.21h-.46Z"/><path class="cls-1" d="M26.44,23q-1,3.23-2.55,3.56A6.19,6.19,0,0,1,20,25.49a17.68,17.68,0,0,1-4.22-5.33,38.38,38.38,0,0,1-2.22-6.22H5.33v8.89L12,21c1.4-.37,1.52-.18.34.55a38.52,38.52,0,0,1-5.23,2.55q-3.55,1.67-4.89,2.22c-.89.37-1.56.29-2-.22a1.45,1.45,0,0,1,0-1.55c.3-.45,1.26-.82,2.88-1.11V2.38a1.45,1.45,0,0,1,.78-1.33A2.55,2.55,0,0,1,5.33.61H22.44a2.28,2.28,0,0,1,1.44.67,2.09,2.09,0,0,1,.78,1.33V6.38a1.73,1.73,0,0,1-1,1.44A2.81,2.81,0,0,1,22,8.38H15.33l.45,4.44h9.78c.66,0,1,.18.88.55a1.09,1.09,0,0,1-.88.56H16.22Q18,20.6,20.44,22.83C22,24.38,23,24.45,23.55,23c.59-1.78,1.3-2.55,2.11-2.33S26.66,21.71,26.44,23ZM22.22,7.27V1.71H5.33V7.27Zm-8.66,5.56-.45-4.44H5.33v4.44Z"/><path class="cls-1" d="M54.44,26.82H29.11c-.6-.07-.86-.26-.78-.56s.26-.55.78-.55H40.44V17.27H32.66a.75.75,0,0,1-.66-.55c-.15-.3.07-.48.66-.56h7.78v-8H33.33q-3.34,4.44-4.22,5c-.67.37-.74.19-.22-.56a53.73,53.73,0,0,0,3.44-9.1q.45-2.34,2.34-1.56c.82.3,1,.93.67,1.89s-.89,2-1.56,3.22h6.67V1.71a1.08,1.08,0,0,1,1.11-1,1.09,1.09,0,0,1,1.11,1V7.05h9.77c.45.08.67.26.67.55s-.15.41-.67.55H42.66v8h8.44c.44,0,.62.19.55.56s-.26.48-.78.55H42.66v8.45H54.44a.72.72,0,0,1,.66.55C55.18,26.56,55,26.75,54.44,26.82Z"/><path class="cls-1" d="M82.21,8.83A1.18,1.18,0,0,1,81,9.93a1.1,1.1,0,0,1-1.22-1.11V5.49H70.65v5.78c-.15.74-.52,1.11-1.11,1.11s-1-.37-1.11-1.11V5.49H59.55V8.83a1.5,1.5,0,0,1-1.33,1.11c-.67,0-1-.29-1.11-.89V6.6a2,2,0,0,1,.44-1.78,2.15,2.15,0,0,1,1.78-.44h9.11V2.6h-8c-.52-.07-.81-.26-.88-.55s.3-.55,1.11-.55H78.88c.44,0,.63.19.56.55s-.26.49-.78.55h-8V4.38h9.55a1.82,1.82,0,0,1,1.33.33,1.56,1.56,0,0,1,.67,1.22Zm.44,12.66a2.2,2.2,0,0,1,.11,3,4.2,4.2,0,0,1-3.22,1.89H70.87c-1,0-1.55-.26-1.78-.78a9.18,9.18,0,0,1-.22-3.22H61.55a2.85,2.85,0,0,1-1.45-.56,1.48,1.48,0,0,1-.55-1.22V15.27a1.52,1.52,0,0,1,.78-1.44A2.6,2.6,0,0,1,62,13.49H78.2a2,2,0,0,1,1.33.23c.37.22.59.74.67,1.55V20.6a1.68,1.68,0,0,1-1,1.34,3.29,3.29,0,0,1-1.66.44H71.1a6.4,6.4,0,0,0,.11,2.33c.08.37.4.55,1,.55h6.22a4.3,4.3,0,0,0,2-2.44C80.95,21.57,81.69,21.12,82.65,21.49ZM66.88,7.94c.22,0,.33.18.33.56S67,9,66.65,9H61.1q-.89-.11-1-.55c-.08-.37.19-.56.78-.56Zm-.23,2.67c.37.06.56.26.56.55s-.33.48-.78.55H61.32c-.66-.07-1-.26-1-.55s.41-.55,1-.55Zm2.22,6.66V14.38H61.77v2.89Zm0,4V18.38H61.77v2.88Zm8.89-4V14.38H71.1v2.89Zm0,4V18.38H71.1v2.88Zm.67-10.66c.51.06.74.26.67.55s-.37.48-.89.55H72.87c-.59-.07-.92-.26-1-.55s.33-.55,1-.55Zm.22-2.89c.37,0,.52.15.44.44a1.51,1.51,0,0,1-.67.67H72.87c-.44-.15-.66-.37-.66-.67s.23-.44.66-.44Z"/><path class="cls-1" d="M112.2,22.6a4.4,4.4,0,0,1-.56,2.78A2.92,2.92,0,0,1,109.54,27c-1.49,0-2.71-1-3.66-3s-1.44-6-1.67-11.88h-18c-.52-.08-.78-.26-.78-.56s.33-.48,1-.55h18.22c1-.07,1.56.22,1.78.89a9.7,9.7,0,0,1,.45,3.55,20.45,20.45,0,0,0,.33,4.78,8.28,8.28,0,0,0,1.89,4.11c.52-1,1-2,1.56-2.89S111.68,21,112.2,22.6Zm-9.11-3.78H98.2a12.6,12.6,0,0,0,1.67,2.66c.67.89,1.37,1.78,2.11,2.67,1,.74,1.59,1.34,1.67,1.78s-.27.52-1,.45a6.72,6.72,0,0,1-3.11-2.22c-1.33-1.26-2.29-2.22-2.89-2.89v5.11a1,1,0,0,1-1.11.78,1.09,1.09,0,0,1-1.11-1V20.82A13.78,13.78,0,0,1,92,23.6a20.49,20.49,0,0,1-5.1,3c-.75.14-1.19.11-1.33-.12s.07-.7.66-1.22q1.67-1.44,3.34-3a22.88,22.88,0,0,0,2.67-3.45H87.32c-.52-.07-.78-.26-.78-.56s.18-.56.78-.56h7.11v-4c.15-.82.52-1.19,1.11-1.12s.89.38,1.11,1.12v4h1.11q-.55-1.32,1-3.1c1-1.18,1.82-1.55,2.56-1.11a1.27,1.27,0,0,1,.33,1.67,8,8,0,0,1-2.55,2.55h4c.45-.07.67.08.67.45S103.54,18.75,103.09,18.82Zm6.67-14.89H90.87c-.59.67-1.52,1.63-2.77,2.89s-2,1.77-2.34,1.77c-.22-.37-.08-1,.44-1.77s1.26-2.23,2.45-4.45a9.57,9.57,0,0,1,1-1.89c.3-.51.85-.63,1.67-.33.59.3.85.63.78,1a7.29,7.29,0,0,1-.55,1.67h18.21c.44.07.66.26.66.55S110.2,3.86,109.76,3.94ZM93.09,17.27a1.74,1.74,0,0,1-1.78-.44,9,9,0,0,1-1.77-2.22c-.45-.89-.56-1.41-.33-1.55s.77-.08,1.66.44a9.26,9.26,0,0,1,2.22,1.78A1.35,1.35,0,0,1,93.09,17.27Zm13.55-9.11H90c-.59-.08-.89-.26-.89-.55s.3-.55.89-.55h16.44c.59,0,.92.19,1,.55S107.17,8.08,106.65,8.16Z"/><path class="cls-1" d="M102.88,33.79s0,0,0,0-.25,0-.28,0l-5.32,4.87c-.07.06.09.07.11.06l1.3-.14c-.27,0-.54.48-.76.75L96,41.65c-.06.07.08.07.11.06l.67-.09.49-.07-.85,1.27c-.65,1-1.29,1.91-1.94,2.87-.08.11.23,0,.28,0l6.44-6s0-.07,0-.07l-1-.08c.09,0,.4-.47.53-.62L102,37.1c0-.06,0-.07-.08-.07-.29,0-1-.07-1.11.06l.6-1Z"/><path class="cls-1" d="M16,41.7s.32-.06.28-.09l-2.5-3,.94.1s.33-.06.27-.1L9.65,33.74H9.52c-.09,0-.17.07-.16.09l2,3.21h-.88s-.28.06-.25.1c.61.8,1.22,1.59,1.83,2.39l-.81.06s-.26.06-.21.11l6.44,6c.05,0,.32,0,.3-.09L15,41.57Z"/></svg>