<svg id="Layer_1" data-name="Layer 1" xmlns="http://www.w3.org/2000/svg" viewBox="0 0 65.61 64.73"><defs><style>.cls-1{fill:#fff;}</style></defs><title>logo-Artboard 24</title><path class="cls-1" d="M16.52,42.56c-3,10.88-4.15,14.08-8,22L0,56.84c2.92-3.4,5.78-10.13,8.5-20.26ZM6,17.81A85.74,85.74,0,0,1,18.49,26l-5.78,8.57A89.08,89.08,0,0,0,.07,25.63ZM8.29.54A81.19,81.19,0,0,1,19.85,9.18l-5.78,8.29A77.17,77.17,0,0,0,1.84,8.09ZM63,21.15l-2.72,1.09a68.34,68.34,0,0,1-8,2.58c.41,2.92.61,4.22,1.09,6.39a30.38,30.38,0,0,0,6.05-4.15l5.37,8.36c-6.32,3.67-6.32,3.67-8.84,4.9,2.52,6.46,5,10.06,9.59,14.35a42.48,42.48,0,0,0-6.94,9.93A48,48,0,0,1,48.41,47.12c-2.18-6-3.2-10.74-4.56-20.26l-1.09.2V56a70.59,70.59,0,0,0,.41,8.5H32.43a77.45,77.45,0,0,0,.41-8.5V28.49l-3.06.34c-.48,18.36-2.38,26.93-7.89,35.9a44.49,44.49,0,0,0-8-8c4.76-7.68,6.19-16.25,6.19-37.74,0-7.55-.07-10.06-.27-13.33,1.22.07,1.29.07,2.86.07,5.85,0,16.39-1.43,23.87-3.2A38.46,38.46,0,0,0,54.12,0l7.82,8.5c-.61.2-.61.2-1.56.48a13.71,13.71,0,0,0-2,.61,129.82,129.82,0,0,1-28.56,5v5c10.54-.82,21.76-3.6,26.31-6.53Z"/></svg>