<svg id="Layer_1" data-name="Layer 1" xmlns="http://www.w3.org/2000/svg" viewBox="0 0 63.78 62.49"><defs><style>.cls-1{fill:#fff;}</style></defs><title>logo-Artboard 23</title><path class="cls-1" d="M16.11,21.69A61.71,61.71,0,0,1,6.8,35.76,36.27,36.27,0,0,0,0,26.93C6.26,20.81,11.36,10.06,11.9,1.7L22.51,4.22c-.82,2.31-.82,2.31-1.36,4.15-.34,1.36-.68,2.38-1.16,3.88h8.16V9.11A76.56,76.56,0,0,0,27.74,0H39.37A62.67,62.67,0,0,0,39,9.11v3.13H50.79c4,0,7.34-.14,10.61-.41V22.1c-3.4-.27-6.6-.41-10.27-.41H39v10.2H49a93.39,93.39,0,0,0,9.52-.41V41.75c-3.06-.27-5.85-.41-9.45-.41H39V52.42H53a100.29,100.29,0,0,0,10.81-.48V62.49C59.9,62.15,57,62,53.31,62H13.67c-3.88,0-7.28.14-11.22.48V51.95c3.47.34,6.87.48,10.81.48H28.15V41.34H19.72c-3.6,0-6.39.14-9.32.41V31.55a83.39,83.39,0,0,0,9.11.34h8.63V21.69Z"/></svg>