<?xml version="1.0" encoding="utf-8"?>
<!-- Generator: Adobe Illustrator 21.1.0, SVG Export Plug-In . SVG Version: 6.00 Build 0)  -->
<svg version="1.1" id="圖層_1" xmlns="http://www.w3.org/2000/svg" xmlns:xlink="http://www.w3.org/1999/xlink" x="0px" y="0px"
	 viewBox="0 0 577.6 577.5" style="enable-background:new 0 0 577.6 577.5;" xml:space="preserve">
<style type="text/css">
	.st0{fill:#FFFFFF;}
</style>
<title>工作區域 2</title>
<path class="st0" d="M485.2,266.5h-4c-26.2,0-52.3,0-78.5,0.1c-2.8,0-3.8-0.7-3.8-3.6c0.2-19.9,0.1-39.7,0.5-59.6
	c0.1-4.2,0.8-8.3,2.1-12.3c3.9-13.3,13.9-19.2,26.7-21c6.1-0.8,12.3-1.2,18.5-1.2c12.9-0.2,25.8-0.1,38.6,0c2.4,0,3.3-0.6,3.3-3.1
	c-0.1-24.2-0.1-48.3,0-72.5c0-2.2-0.6-3.1-3-3.3c-23.4-2.4-47-3.4-70.6-2.9c-21.4,0.5-41.6,5.6-59.9,17.2
	c-21.7,13.8-34.9,33.7-41.8,58.2c-3.9,13.8-5.1,28-5.2,42.3c-0.1,19.3,0,38.5,0,57.8c0,4.2,0,4.2-4.3,4.2h-70.7
	c-0.1,1.1-0.2,2.1-0.2,3c0,27.1,0,54.3-0.1,81.5c0,2.6,0.7,3.4,3.3,3.4c22.8-0.1,45.5,0,68.3-0.1c3,0,3.6,0.9,3.6,3.7
	c-0.1,72-0.1,144,0,215.9c0,3-0.9,3.6-3.8,3.6c-90.7-0.1-181.5-0.1-272.2-0.1c-15.8,0-28.3-10-31.5-25.3c-0.5-2.7-0.7-5.5-0.6-8.3
	c0-170,0-340-0.1-510C0,13.9,13.3,2.8,25.4,0.6C28.1,0.2,30.9,0,33.7,0C203.8,0,374,0,544.1,0c16.5,0,28.7,8.9,32.5,23.8
	c0.5,2.2,0.8,4.5,0.9,6.8c0.1,1,0.1,2,0,3c0,170.1,0,340.2,0,510.3c0,11.1-3.7,20.3-12.5,27.2c-5.2,4.1-11.7,6.4-18.3,6.4
	c-48.2,0-96.4,0-144.7,0.1c-3.6,0-3.1-2-3.1-4.2c0-58.3,0-116.6,0-174.9c0-13.5,0.1-27-0.1-40.4c0-2.8,0.7-3.8,3.7-3.7
	c22.6,0.1,45.1,0,67.7,0.1c2.9,0,4-0.8,4.3-3.7c1.6-13,3.3-25.9,4.9-38.8c1.7-13.3,3.4-26.7,5.2-40
	C485,270.2,485.1,268.5,485.2,266.5z"/>
</svg>
