<svg id="Layer_1" data-name="Layer 1" xmlns="http://www.w3.org/2000/svg" viewBox="0 0 64.25 63.44"><defs><style>.cls-1{fill:#fff;}</style></defs><title>logo-Artboard 25</title><path class="cls-1" d="M10.74,5a38.34,38.34,0,0,0-.27-5h7.75a34,34,0,0,0-.14,4.49v9.79h2V4.42A32.41,32.41,0,0,0,19.92,0h7.75a39.48,39.48,0,0,0-.2,5v5.71A44.45,44.45,0,0,0,31.62.34l7.28,2.92a64.69,64.69,0,0,1-5.1,10.4l-6.32-2.45v3.06h1.77A45.61,45.61,0,0,0,35.29,14v9.18c-1.22-.07-2.11-.14-3.47-.2-.75,2.11-1.43,3.81-2,5.1,2.45-.07,3.06-.07,4.49-.2v8.84c-1.7-.14-2.92-.2-6.46-.2H23.39v3.33h3.26a49,49,0,0,0,6.05-.27v8.36a48.75,48.75,0,0,0-6.05-.2H23.39V51.4c3.4-.27,5.58-.54,12-1.29v9C25.29,60.65,17,61.53,6.12,62.28a41,41,0,0,0-4.62.54L0,52.22c.75.07,3.33.14,4.35.14,2.24,0,5-.07,9.45-.27V47.73H9.18a47,47,0,0,0-6,.2V39.57a48.46,48.46,0,0,0,6,.27H13.8V36.51H8.09c-3.54,0-4.83.07-6.46.2V27.81a43,43,0,0,0,5.78.27A47.43,47.43,0,0,0,6,23c-3,0-4,.07-5.85.2V14a43.68,43.68,0,0,0,6.05.27h4.56V10.61L4,13.67A41.83,41.83,0,0,0,.07,3.47L6.73.54a43.34,43.34,0,0,1,4,10Zm10.2,23.12A47.76,47.76,0,0,0,22.37,23H15a44.35,44.35,0,0,1,1.16,5.1Zm21.89-5.37a51.06,51.06,0,0,0-6.19.34V12.92a39.15,39.15,0,0,0,6.19.34H49.5V8.7A69,69,0,0,0,49.09,0H60a70,70,0,0,0-.41,8.7v4.56c2.18-.14,3.13-.2,4.69-.41V23a46,46,0,0,0-4.69-.34V53.92c0,4.22-.82,6.46-2.79,8C55.28,63,53,63.44,48.68,63.44c-1.7,0-4.35-.07-7-.2A34.93,34.93,0,0,0,39.37,53a53.18,53.18,0,0,0,7.28.54c2.24,0,2.86-.34,2.86-1.7V41.41l-8.63,4.22A63.56,63.56,0,0,0,34.47,28.9l8.63-3.54A73.17,73.17,0,0,1,49.5,40.59V22.71Z"/></svg>