<svg id="Layer_1" data-name="Layer 1" xmlns="http://www.w3.org/2000/svg" viewBox="0 0 63.71 61.26"><defs><style>.cls-1{fill:#fff;}</style></defs><title>logo-Artboard 22</title><path class="cls-1" d="M34.75,54.19c-9,2.31-14.89,3.67-24.21,5.37-2.86.54-4.22.75-6.93,1.29-.75.2-1,.2-1.63.41L0,50.31c1.9-.07,2.92-.2,6.53-.61V8.7A73,73,0,0,0,6.12,0c2.58.2,4.42.27,8.5.27H49.57C53.51.27,55.28.2,57.79,0a51.26,51.26,0,0,0-.34,7.62v7.55a51.5,51.5,0,0,0,.34,7.41c-2.31-.14-4.62-.2-8.16-.2H39.37c.2,2.45.2,2.58.48,4.69L52.36,27a79,79,0,0,0,9.52-.41v10.2a94.08,94.08,0,0,0-9.52-.34H42.09a22.77,22.77,0,0,0,6,9.31c1.56,1.5,3.88,3.06,4.49,3.06s1.5-3.54,2.18-8.91a49.38,49.38,0,0,0,9,5.44c-1.77,11.42-4.22,15.43-9.52,15.43-3.94,0-8.29-2.31-13.12-6.94A32.88,32.88,0,0,1,34.68,45ZM17,13.67H47.12V9.38H17Zm0,8.7v4.76l12.65-.07c-.27-2-.27-2-.48-4.69Zm0,25.77c6-1,8.57-1.56,17.41-3.74a43.87,43.87,0,0,1-3-7.89H17Z"/></svg>