<svg id="Layer_1" data-name="Layer 1" xmlns="http://www.w3.org/2000/svg" xmlns:xlink="http://www.w3.org/1999/xlink" viewBox="0 0 159.78 61.65"><defs><style>.cls-1,.cls-3,.cls-4{fill:none;}.cls-2{clip-path:url(#clip-path);}.cls-3,.cls-4{stroke:#fff;stroke-miterlimit:10;}.cls-3{stroke-width:7px;}.cls-4{stroke-linecap:round;stroke-width:6.3px;}</style><clipPath id="clip-path"><rect class="cls-1" x="156.63" y="100.95" width="175.48" height="175.47"/></clipPath></defs><title>wording-Artboard 10</title><g class="cls-2"><line class="cls-3" x1="0.34" y1="400.14" x2="409.01" y2="58.94"/><line class="cls-3" x1="-16.49" y1="382.1" x2="392.19" y2="40.9"/><line class="cls-3" x1="-33.31" y1="364.06" x2="375.36" y2="22.86"/><line class="cls-3" x1="-50.13" y1="346.01" x2="358.54" y2="4.82"/><line class="cls-3" x1="-66.96" y1="327.97" x2="341.72" y2="-13.23"/><line class="cls-3" x1="-83.78" y1="309.93" x2="324.89" y2="-31.27"/><line class="cls-3" x1="-100.6" y1="291.89" x2="308.07" y2="-49.31"/><line class="cls-3" x1="-117.42" y1="273.85" x2="291.25" y2="-67.35"/></g><path class="cls-4" d="M156.63,35.4s-15-7.28-19.15-9.08-8.13-2.16-13.66,1.26-14.7,7.82-14.7,7.82-2.94,3-9.51-1S84.41,26.5,83.2,25.78s-5.19-3.43-11.06,0-14.87,8.65-16.94,9.74S50.87,37,46,33.89a187.08,187.08,0,0,0-17.12-8.83c-2.42-1.08-6.57-1.62-12.79,2.88s-13,9.63-13,9.63"/><path class="cls-4" d="M156.63,14.47s-15-7.28-19.15-9.08-8.13-2.16-13.66,1.26-14.7,7.82-14.7,7.82-2.94,3-9.51-1S84.41,5.57,83.2,4.85,78,1.42,72.13,4.85,57.26,13.5,55.19,14.58,50.87,16,46,13A186.94,186.94,0,0,0,28.91,4.13C26.49,3,22.34,2.5,16.12,7s-13,9.63-13,9.63"/><path class="cls-4" d="M156.63,56.33s-15-7.28-19.15-9.08-8.13-2.16-13.66,1.26-14.7,7.82-14.7,7.82-2.94,3-9.51-1S84.41,47.43,83.2,46.71s-5.19-3.43-11.06,0-14.87,8.65-16.94,9.74S50.87,57.89,46,54.82A187.08,187.08,0,0,0,28.91,46c-2.42-1.08-6.57-1.62-12.79,2.88s-13,9.63-13,9.63"/></svg>