<svg id="Layer_1" data-name="Layer 1" xmlns="http://www.w3.org/2000/svg" viewBox="0 0 74.41 622.17"><defs><style>.cls-1{fill:#fff;}</style></defs><title>wording-Artboard 15</title><path class="cls-1" d="M21.24,53.63c2.5,3.34,4.32,4.55,8.65,5.31,2.73.53,9.63.91,16.61.91,8.72,0,20.71-.61,27.84-1.29A55,55,0,0,0,71.75,70c-5.61.15-14.64.3-22.68.3-22.91,0-26.47-.83-32.62-7.59a73,73,0,0,1-9.41,7.36c-.53.38-.83.61-1.52,1.14L.61,58.94A39.54,39.54,0,0,0,10.39,54V45H6.9a30.67,30.67,0,0,0-4.7.3V34.59a43.46,43.46,0,0,0,6.3.3H16a40.61,40.61,0,0,0,5.54-.3,60,60,0,0,0-.3,7.43ZM8.65,16.38a102.38,102.38,0,0,1,14.26,9l-6.52,9A82.68,82.68,0,0,0,2,24.8ZM9.48,0A84.47,84.47,0,0,1,23.59,7.74l-6.45,9.1a71.3,71.3,0,0,0-14-8.5ZM22.15,11.61a67.36,67.36,0,0,0,8.65.3H63.49a62.67,62.67,0,0,0,9-.38v8.8c-2.35-.23-4.85-.3-9-.3H30.79c-3.94,0-6,.08-8.65.3Zm3.64,32.54a45.92,45.92,0,0,0-.23-4.78c2,.15,3.72.23,6.07.23H62.58c2.43,0,4.17-.08,6.14-.23a42.92,42.92,0,0,0-.23,4.78v8.34a49,49,0,0,0,.23,4.93c-1.82-.15-3-.15-6-.15H31.63c-3,0-3.87,0-6.07.15.15-1.67.23-3.11.23-4.85Zm.3-42.86a71.47,71.47,0,0,0,9.25.46H58.71a73.59,73.59,0,0,0,9.56-.46v8.8a88.58,88.58,0,0,0-9-.3H34.81c-4,0-6.22.08-8.72.3Zm.38,20.63c1.74.23,2.43.23,8.72.23H58.63c6.6,0,7,0,9-.23v7.13c-2-.15-4.32-.23-9-.23H35.19c-5.08,0-6.52.08-8.72.23Zm0,8.72c1.67.23,2.5.23,8.72.23H58.63c6.83,0,7,0,9-.23v7.13c-2.12-.15-2.12-.15-9-.23H35.19a77.91,77.91,0,0,0-8.72.23ZM36.94,49.76h20.4V47H36.94Z"/><path class="cls-1" d="M25.64,119.84a112.46,112.46,0,0,1-14.26,19.34c-1.44,1.59-1.59,1.74-2.28,2.58L1.06,131a29.64,29.64,0,0,0,5.08-4.55,104.62,104.62,0,0,0,11.91-15.55ZM11.38,80.4A95.82,95.82,0,0,1,24,92.53l-9.25,8.72A68.76,68.76,0,0,0,2,88ZM48.7,101.48a25.24,25.24,0,0,0-.23,3.64c0,6.83,1.59,13.27,4.4,17.75A31.91,31.91,0,0,0,64,133.49a60,60,0,0,0,9.56,4.4A50.1,50.1,0,0,0,67,149.34c-7.21-3.56-10.77-6-14.71-9.86a38.92,38.92,0,0,1-9.18-13.27,41.62,41.62,0,0,1-6.9,11.61c-3.87,4.48-9.18,8.27-16.54,11.76a36.58,36.58,0,0,0-6.45-10.24c5.61-2.35,8.72-4.17,12.21-7.13A30.18,30.18,0,0,0,35.8,115.44,48.17,48.17,0,0,0,37,105a27.86,27.86,0,0,0-.23-3.49ZM59.09,88.59a50.56,50.56,0,0,0,7.13-.38l6.3,5.92a45.1,45.1,0,0,0-1.67,4.4A80.69,80.69,0,0,1,60.68,119a45.41,45.41,0,0,0-10-6.6A42.39,42.39,0,0,0,58.56,99H36.94c-3.34,5.92-6.14,9.63-11.91,15.55a44.18,44.18,0,0,0-8.65-9A48.86,48.86,0,0,0,32.84,78l12.52,2c-.38.83-.38.83-2,4.85-1.14,3-1.14,3-1.44,3.72Z"/><path class="cls-1" d="M69.71,193.26c-1,1.14-1.44,1.82-2.88,3.79a71.44,71.44,0,0,1-8.57,10.62,18.36,18.36,0,0,0,4.55,5.61c.91-1.9,1.44-4.55,2-9.25a42.41,42.41,0,0,0,8.57,5.92c-1.14,6.75-2,9.56-3.87,12.74-1.52,2.43-3.56,3.79-5.84,3.79-2.43,0-6.07-2.12-9.48-5.54a28.52,28.52,0,0,1-4.47-5.61,70.37,70.37,0,0,1-14.41,8.87,58.08,58.08,0,0,0-6.83-9.94,65.49,65.49,0,0,0,16.46-9c-2-5.54-2.81-9.71-3.87-18.51H28v6.52c3.64-.76,5.16-1.06,10.47-2.2l.08,10.54C32.77,203,30.79,203.42,28,204v12.14c0,5.69-1.29,8.27-4.78,9.48-1.59.61-3.79.83-7.89.83-2,0-3.79-.08-6.75-.3A44.81,44.81,0,0,0,5.76,215a54.93,54.93,0,0,0,7.81.53c2.58,0,3.11-.38,3.11-2V206c-2.2.38-2.2.38-9.1,1.44a22.44,22.44,0,0,0-3.64.68L2.2,196.44c3,0,6.67-.38,14.49-1.44v-8.19h-4.4a79.63,79.63,0,0,0-9.71.46V175.59a68,68,0,0,0,9.78.53h4.32v-6c-4,.61-4.93.76-10.39,1.37a46.34,46.34,0,0,0-3.72-10.24c13-.83,24-3,30.34-6l5.31,10.47-6.75,1.59c-1.06.3-1.59.38-3.49.83V176H40.12c-.08-2.58-.23-5.61-.38-11-.23-6.52-.23-6.83-.53-8.72H51.43c-.3,1.59-.38,2.35-.38,7.36s.08,8,.3,12.29h9.56a74.34,74.34,0,0,0-9.48-13.43l8.49-5.39a83.67,83.67,0,0,1,10.47,13.27l-8,5.54h1.06a67.88,67.88,0,0,0,8.57-.46v11.6c-3-.3-6.37-.46-9.78-.46H52.11a59.6,59.6,0,0,0,1.82,9.94c3.26-4.1,4.93-6.75,5.92-9.48Z"/><path class="cls-1" d="M21.69,244.07v-3.56c-1.82,6.37-2.28,7.89-3.64,11.53v42.63a88.79,88.79,0,0,0,.46,9.86H7.13a95.36,95.36,0,0,0,.46-9.94V276.46c0-2.88,0-4.17.15-6.52A29.71,29.71,0,0,1,4.32,275c-1.44-6.3-2.43-9.48-4.32-13.5,5.84-7.21,10.39-18.28,11.76-28.52l9.78,3.72a15.91,15.91,0,0,0-.08-1.9,49,49,0,0,0,6.07.3H39a42.48,42.48,0,0,0,6.07-.3,69.39,69.39,0,0,0-.15,7v16.46c0,4.32,0,4.78.08,6.37-1.44-.08-3-.15-5-.15H32.16v30.64c0,5.69.08,7.89.38,9.41H21.31a93.68,93.68,0,0,0,.38-10.24Zm14.49,2.35v-3H31.71v3Zm-4.48,9.86h4.48v-3.11H31.71Zm33.53-21.16a50.83,50.83,0,0,0,6.22-.3,92.46,92.46,0,0,0-.3,9.25v49.76c0,8.19-2.65,10.32-12.74,10.32-1.82,0-3-.08-6.07-.23-.53-4.93-1.14-7.59-2.73-11.07a51.25,51.25,0,0,0,8.27.76c2.2,0,2.5-.23,2.5-1.74V264.48H52.26c-2,0-3.64.08-5,.15v-1.37c.08-.76.08-2.12.08-4.93V241.8c0-4.25,0-5.39-.15-7a47.75,47.75,0,0,0,6.22.3Zm-4.4,8.27H56.05v3h4.78Zm-4.78,9.78v3.11h4.78v-3.11Z"/><path class="cls-1" d="M71.83,341.16a122.29,122.29,0,0,0-13-.61h-43a125.64,125.64,0,0,0-13.12.61V328a109.06,109.06,0,0,0,13.12.61h43a98.52,98.52,0,0,0,13-.61Z"/><path class="cls-1" d="M17.14,393.42H11.3a64.78,64.78,0,0,0-8.87.38v-11a66.77,66.77,0,0,0,9,.46h4.17v-5.31H12.74a79,79,0,0,0-8.27.3V367.55a58,58,0,0,0,8.12.46h3v-1.29a35.14,35.14,0,0,0-.46-6.3H27a27.63,27.63,0,0,0-.46,6.3V368h3a45.88,45.88,0,0,0,7.36-.38v10.62a65,65,0,0,0-7.36-.3h-3v5.31h3.34a54.82,54.82,0,0,0,8-.38v10.92a51.87,51.87,0,0,0-7.43-.38h-2.2v6.14h2.73a40.55,40.55,0,0,0,6.67-.38v10.54a38.9,38.9,0,0,0-6.67-.38H28.22v8.34c3.64,1,8.8,1.44,16.31,1.44a222.86,222.86,0,0,0,29.88-1.59,45.31,45.31,0,0,0-2.88,12.06c-2.88,0-2.88,0-10.32.38h-14c-14.26,0-21.39-1-26.47-3.56a23.52,23.52,0,0,1-8.27-7.05,48.84,48.84,0,0,1-3.64,11.38A43.8,43.8,0,0,0,.61,423c3.41-7.81,4.85-14.79,4.85-24.42,0-.91-.08-1.9-.15-3l9.63,1.52a16.1,16.1,0,0,0-.23,3.19c-.08,2.2-.23,4.4-.53,7.21a14.75,14.75,0,0,0,3,3.79Zm51.73-8.8a50.25,50.25,0,0,0,.3,7.81c-2.43-.15-4.1-.23-8.34-.23H51.35V403c0,1.82.53,2.12,3.72,2.12,6.6,0,6.9-.23,6.9-6v-3.64A41.83,41.83,0,0,0,72.74,399c-.23,8-.83,11.53-2.28,13.5-2,2.81-5.76,3.49-18.51,3.49-5.46,0-8-.3-9.63-1.29C40.5,413.67,40,412,40,407.3V390.61c0-3.72-.08-5.76-.3-8.49a71.78,71.78,0,0,0,7.51.3H57.49v-8.65H47a46.45,46.45,0,0,0-7.81.46v-11a68.16,68.16,0,0,0,8.87.45h13a56.43,56.43,0,0,0,8.12-.38,45.69,45.69,0,0,0-.3,7.21Z"/><path class="cls-1" d="M12.29,481.93a63.73,63.73,0,0,0-8.65.38V471.16a61.7,61.7,0,0,0,8.65.38H62.58a59.35,59.35,0,0,0,8.42-.38v11.15a62.48,62.48,0,0,0-8.57-.38H49.91v13.43c0,1.74.83,2,5.31,2,4.17,0,5.54-.38,6.07-1.59a29.55,29.55,0,0,0,.68-6.22,11.3,11.3,0,0,0-.08-1.44A39.55,39.55,0,0,0,72.82,491c-.3,8.87-1.52,12.82-4.7,15.09-2.35,1.59-5.69,2-15.55,2-12,0-14.34-1.14-14.34-7.13V481.93H32.54c-.68,7.21-1.82,11.07-4.63,15.25A29.85,29.85,0,0,1,15.25,507a47.1,47.1,0,0,1-8.12,2.73,38.66,38.66,0,0,0-6.07-10.85c6.37-1.14,10.16-2.65,14-5.39,3.41-2.5,5.16-5.92,5.69-11.6Zm18.36-39a33.66,33.66,0,0,0-.3-5.16H43.08a28.92,28.92,0,0,0-.38,5.08v.91H62.27c4.25,0,6.75-.08,9.18-.3a44.76,44.76,0,0,0-.3,6.3v7.51a39.92,39.92,0,0,0,.38,6.37H60v-9.48H14.64v9.48H3a38.87,38.87,0,0,0,.46-6.45v-7.43a47.6,47.6,0,0,0-.3-6.3c2.35.23,4.85.3,9,.3H30.64ZM16.46,457.43a69.88,69.88,0,0,0,7.74.3H50.44a70.53,70.53,0,0,0,7.81-.3v10.69a69.84,69.84,0,0,0-7.81-.3H24.2a69.19,69.19,0,0,0-7.74.3Z"/><path class="cls-1" d="M69.17,543a35.55,35.55,0,0,0-1.44,3.64,93.89,93.89,0,0,1-10.16,19c2,3.56,3.26,5.23,5.23,6.9,1-2.43,1.37-4.32,2.12-9.78a40.65,40.65,0,0,0,8.72,6.83c-2,11.38-4.93,16.31-9.56,16.31-4.32,0-9-3.72-14.26-11.23a69.89,69.89,0,0,1-15.17,11.3,45,45,0,0,0-5.61-9.1,37.54,37.54,0,0,1-7.89.83c-.76,0-1.52,0-2.73-.08a48.89,48.89,0,0,0-1.74-8.34c-1.52,7.43-3.56,12.74-7.05,17.82a51.53,51.53,0,0,0-9.1-9.41,35.2,35.2,0,0,0,5-12.44c1.44-6.75,2.2-16.91,2.2-30.79a97.87,97.87,0,0,0-.46-10c3.11.23,6.3.38,10.32.38H39.06a75.27,75.27,0,0,0-.46-9H51a38.55,38.55,0,0,0-.38,5.46v3.56h7.66a45.77,45.77,0,0,0-6.07-4L59.47,514a55.39,55.39,0,0,1,9.63,7.05l-4.48,3.72a45.71,45.71,0,0,0,7.51-.38v11.45a95.18,95.18,0,0,0-9.94-.46H50.9A117.55,117.55,0,0,0,53,553.07c2.88-5.61,4.4-9.94,5.08-14.18ZM18.58,553.6c-.38,5.16-.83,9-1.44,13a26.06,26.06,0,0,0,4.48.46c1.82,0,2.43-.3,3-1.52.68-1.52.91-4.4,1.14-11.91Zm13.65-10.32a41.7,41.7,0,0,0,5-.23c-.15,2.12-.15,2.12-.61,13.88-.3,7.66-1.06,13-2.35,15.78a55.74,55.74,0,0,0,10.39-8.19c-3-8.65-4.32-15.78-5.16-29.13H19.11c0,4.17,0,5.39-.08,7.89Z"/><path class="cls-1" d="M73,607.76a14.41,14.41,0,1,1-14.41-14.41A14.4,14.4,0,0,1,73,607.76Zm-21,0a6.6,6.6,0,1,0,6.6-6.6A6.6,6.6,0,0,0,52,607.76Z"/></svg>