<svg id="Layer_1" data-name="Layer 1" xmlns="http://www.w3.org/2000/svg" viewBox="0 0 46.97 620.44"><defs><style>.cls-1{fill:#fff;}</style></defs><title>wording-Artboard 16</title><path class="cls-1" d="M0,23.19A65.17,65.17,0,0,0,12.1,11.52,40.77,40.77,0,0,0,18.71,0C27.1,1.83,27.1,1.83,27.1,2.36s-.53.72-2.17,1.06a27.79,27.79,0,0,0,9.6,8.34,33.18,33.18,0,0,0,11.81,4.29v.58a5.57,5.57,0,0,0-2.56,1.93,11.85,11.85,0,0,0-1.45,3c-.19.68-.34.82-.68.82a13.27,13.27,0,0,1-4.05-2.27,37,37,0,0,1-9.21-9A46.3,46.3,0,0,1,24.16,4,49.06,49.06,0,0,1,13,16.3,51.94,51.94,0,0,1,.29,23.68Zm5.55,1.64a16.49,16.49,0,0,0,3.81.43H31c1.25-1.3,1.64-1.74,2.94-3,1.93,1.35,2.51,1.78,4.39,3.18.43.39.63.63.63.87,0,.53-.63,1-2.27,1.45A163.55,163.55,0,0,1,28.4,43.64a1.65,1.65,0,0,1-1.54.77,11.54,11.54,0,0,1-4.39-.77.75.75,0,0,1-.39-.63,2.33,2.33,0,0,1,.39-.87A107.29,107.29,0,0,0,31,26.28H9.31a15.91,15.91,0,0,0-3.42.29Zm6.85-7.52a14.27,14.27,0,0,0,3.18.34h8.78c1.49-1.78,2-2.31,3.47-4,2.31,1.74,3,2.31,5.21,4.2.19.19.29.34.29.43s-.24.34-.58.34H15.48a14.6,14.6,0,0,0-2.8.24Z"/><path class="cls-1" d="M16.88,60v-1.4c0-1.06,0-2-.19-3.76,5.79.43,6,.43,6.56.72a.82.82,0,0,1,.34.48c0,.34-.43.58-1.64,1V60h7.72V58.16a20.4,20.4,0,0,0-.24-3.33c1.49.1,2.6.19,3.33.24,2.65.19,3.52.43,3.52.92s-.43.63-1.49,1.06l0,2.94H37c1.35-1.69,1.78-2.17,3.09-3.71,2.27,1.69,2.94,2.22,5,4,.24.24.34.34.34.48s-.24.29-.48.29H34.72l.1,8.34c0,.43-.14.63-.43.77a8.12,8.12,0,0,1-3,.39c-1.35,0-1.64-.19-1.69-1V68.14H21.94v1.59a.8.8,0,0,1-.58.82,11.63,11.63,0,0,1-3.18.34c-1.16,0-1.45-.19-1.45-1.06.1-2.89.1-3.09.14-8.82H10.32c-.1,5.79-.1,5.79-.24,8.1-.72,10-3.38,16.44-9,21.94l-.43-.29C4.05,83.42,5,76.77,5,58c0-3.71,0-5.64-.29-9.11,2.89,1.4,3.76,1.83,6.41,3.38H21.46V49.57a18.92,18.92,0,0,0-.24-3.13c6.12.48,6.41.53,7,.72s.72.34.72.58c0,.43-.48.72-2,1.35v3.13h9.21c1.45-1.83,1.93-2.41,3.42-4.15,2.6,1.83,3.38,2.41,5.79,4.39.19.24.29.34.29.48s-.24.29-.63.29H10.46c-.1,3-.1,3-.14,6.75ZM46.1,85.11c-2.12.92-2.85,1.93-3.76,5-.14.39-.29.53-.58.53a43.38,43.38,0,0,1-4.77-1,34.26,34.26,0,0,1-10.8-4.82c-6.32,3.52-12,5.3-20.88,6.46l-.24-.68c7.91-2.41,12.78-4.73,17.74-8.39A26.1,26.1,0,0,1,16.68,74H14.76a17.19,17.19,0,0,0-3.42.24L11,72.57a14.58,14.58,0,0,0,3.86.43H31.34c1-.87,1.88-1.74,2.8-2.56,2.07,1.49,2.7,1.93,4.53,3.42.39.39.58.63.58.87,0,.48-.63.72-2.41,1a32.61,32.61,0,0,1-6.94,6.75,54.72,54.72,0,0,0,14.85,2.07H46.1ZM17.6,74a20.85,20.85,0,0,0,7.52,6.41A27.54,27.54,0,0,0,31.29,74Zm4.34-6.9h7.72V61H21.94Z"/><path class="cls-1" d="M10.46,115.93a18,18,0,0,0-.19,2.36c0,6.12,3.47,8.68,11.72,8.68a25.27,25.27,0,0,0,9.79-1.59,4.11,4.11,0,0,1,1.74-.43c2.36,0,4.92,2,4.92,3.76a2.37,2.37,0,0,1-1.69,2.12c-2.07.82-6.41,1.3-11.57,1.3-5.69,0-9.69-.82-12.25-2.46a9.3,9.3,0,0,1-4.34-8.1,15.54,15.54,0,0,1,1.25-5.83Zm1.06-18.42c2.12,1.49,4,2,7.43,2a37.51,37.51,0,0,0,6.65-.68,14.21,14.21,0,0,0,3.42-1,4.1,4.1,0,0,1,1.06-.19c2.12,0,4.63,2.17,4.63,4a1.71,1.71,0,0,1-1.25,1.59,12,12,0,0,1-2.94.58c-3.91.63-7.43,1.74-14.51,4.48l-.29-.53c1.3-.92,4.1-2.7,7.23-4.63H21.51a14.44,14.44,0,0,1-6.22-1.3,9.43,9.43,0,0,1-4.15-4Z"/><path class="cls-1" d="M14.95,143.56a36.74,36.74,0,0,0,8.15-1.83c2.8-.87,2.8-.87,4-1.83a2,2,0,0,1,1.25-.48c2,0,5.69,3.76,5.69,5.83,0,.68-.29.92-1.69,1.49-1,.39-2,1.11-5.26,3.52-1.83,1.4-8.53,5.93-16.83,11.43,4.92-1.74,7.62-2.6,11-3.66L28.5,156c1.11-.29,1.11-.29,3.38-1a13.3,13.3,0,0,0,2.51-.82c1.45-.58,1.45-.58,2-.58a7.12,7.12,0,0,1,2.94,1c1.35.77,2,1.64,2,2.6a1.74,1.74,0,0,1-.87,1.49c-.58.29-.58.29-4.34.48A29.62,29.62,0,0,0,27,161.35c-3.66,1.64-6,4.73-6,8s2.8,5.45,7.18,5.45a12.31,12.31,0,0,0,2.27-.19,5,5,0,0,1,.77,0c1.74,0,4.05,2.36,4.05,4.15,0,1.4-1.3,2.07-4,2.07-7.91,0-13.26-4-13.26-9.74a10.83,10.83,0,0,1,2.65-6.65,18.1,18.1,0,0,1,5.21-4.24c-6,1.78-12.92,4.68-16,6.75-.87.58-1.16.72-1.64.72-1.64,0-3.71-2.22-3.71-4,0-.72.34-1.06,1.4-1.4a14.53,14.53,0,0,0,4.34-2.36A133.52,133.52,0,0,0,26.38,145c1.06-1.21,1.35-1.64,1.35-2s-.19-.43-.48-.43a20.93,20.93,0,0,0-4.82,1.83,35.79,35.79,0,0,0-5.3,3,2.82,2.82,0,0,1-1.69.63c-2,0-4.68-3.42-4.68-6.08a2.35,2.35,0,0,1,.34-1.35C12.25,142.69,13.31,143.56,14.95,143.56Z"/><path class="cls-1" d="M1.4,195.79a30.57,30.57,0,0,0,6.08.53H34.91c1.64-2.12,2.17-2.8,4-4.87,2.89,2.22,3.76,2.89,6.51,5.21.19.19.24.29.24.39s-.19.29-.58.29H7.47a40.9,40.9,0,0,0-5.74.34Z"/><path class="cls-1" d="M39,228.19c1.25-1.59,1.69-2.07,3-3.57,2.07,1.64,2.7,2.17,4.58,3.91.19.19.24.29.24.39s-.19.29-.53.29H34.77a53.66,53.66,0,0,1-6.8,6.41h8.44c1.16-1.4,1.54-1.78,2.7-3.09A31.55,31.55,0,0,1,43,235.43c.39.34.53.58.53.77s-.34.63-1.59,1.3c0,5.88,0,8.82.1,11.77,0,2.36.1,4.44.14,6.27,0,.39,0,.58-.19.72-.34.34-1.54.53-3.18.53s-1.83-.1-1.88-.87V253.7H27.1v2c0,.92-.58,1.11-3.28,1.11-1.64,0-1.88-.1-1.88-.92.1-6.75.14-10.37.14-10.75v-5.35c-1.11.68-2.75,1.54-4.53,2.41,1.54,2,2.07,3.18,2.07,4.44,0,1.93-1.69,4.15-3.13,4.15a1,1,0,0,1-.87-.68c-.14-.39-.14-.39-.34-3.28a21.37,21.37,0,0,0-2.12-8.44l.34-.34a22.39,22.39,0,0,1,3.62,3.52A50.29,50.29,0,0,0,22,237.5c0-3.28,0-3.28-.1-4.58,1.59.67,2.41,1.06,3.33,1.49a57.05,57.05,0,0,0,4.58-5.21H20.78a13.46,13.46,0,0,0-3.28.34l-.34-1.78a12.21,12.21,0,0,0,3.62.43h4.15v-7.33H22.52a13,13,0,0,0-2.75.29c-.29.48-.29.48-2.07.58a143.82,143.82,0,0,1-10,10.71c4.58-.14,5.11-.19,7.23-.39a20.55,20.55,0,0,0-1.83-4.44l.34-.29c4.68,3.09,6.27,4.77,6.27,6.8,0,1.78-1.54,3.52-3.09,3.52a.83.83,0,0,1-.77-.53,5.15,5.15,0,0,1-.24-1.4,15,15,0,0,0-.34-2.27c-1.4.53-1.45.53-2.65.92v10.9c0,6,0,9.55.1,10.56,0,.43-.1.68-.34.82a9.36,9.36,0,0,1-3,.34c-1.35,0-1.64-.14-1.64-.92L8,245.45v-3.52l-.48.1A38.7,38.7,0,0,1,1,254.86l-.43-.19A72.24,72.24,0,0,0,3.28,239,45.06,45.06,0,0,1,8,240.39v-4.68c-3.09.87-3.09.87-4.53,1.21-.24,1.21-.43,1.64-.82,1.64s-.63-.39-1.64-6a17.88,17.88,0,0,0,2.12.1c.68,0,1,0,2.56-.1,1.45-2.22,2-3.13,3.86-6.27a50.43,50.43,0,0,0,4.2-8.15c4.39,1.78,5.45,2.22,5.93,2.7l-.24-1.4a11.91,11.91,0,0,0,3.09.43h2.41v-3.23a24.89,24.89,0,0,0-.29-4.19c5.83.48,6.22.53,6.75.72s.58.29.58.58-.53.77-2,1.25v4.87h1.35c.92-1.3,1.21-1.69,2.22-2.94a30,30,0,0,1,2.75,2.51,25.67,25.67,0,0,0,2.17-5.3c5.88,2,6.7,2.31,6.7,2.85s-.48.63-2.07.82a99.66,99.66,0,0,1-7.43,10.42ZM1.45,218.93a35.55,35.55,0,0,1,3.86,1.74A39.83,39.83,0,0,0,8,212c6.7,1.93,7.09,2.07,7.09,2.6s-.43.68-2.07.87a61.24,61.24,0,0,1-6.27,6c1.83,1.16,2.36,1.83,2.36,3.09,0,2-1.35,3.81-2.8,3.81-.63,0-1-.53-1.54-2.27a16.24,16.24,0,0,0-3.62-6.85Zm35.49,17.7H27.1v7h9.84Zm-9.84,8.05v8h9.84v-8Zm3.57-16.49a65.76,65.76,0,0,0,4.77-7.33h-5.5v7.33Z"/><path class="cls-1" d="M15.14,278.68c-2.17,8.92-2.65,11.43-2.65,13.5a9.12,9.12,0,0,0,.19,1.78,2.56,2.56,0,0,1,0,.67,4.6,4.6,0,0,1-.39,2.12,2.39,2.39,0,0,1-2.07,1.16c-1.25,0-2.31-.87-3-2.56A26.85,26.85,0,0,1,5.4,284.76c0-4.1.39-7,1.93-14.32a28.34,28.34,0,0,0,1-5.88,7.38,7.38,0,0,0-1.59-4.63c1.4.14,2.7,1,4.29,2.75,1.88,2.12,2.8,3.91,2.8,5.4,0,.82-.19,1.35-1.11,3C10.17,275.74,9,279.79,9,283.94a15.2,15.2,0,0,0,.72,5c1.25-2.51,1.54-3.13,2-4.24l2.84-6.22Zm5.45,2.41c-.1,1.11-.14,1.59-.14,2.12,0,2.51.68,4.29,2.12,5.55s3.76,1.93,7.33,1.93a33.67,33.67,0,0,0,4.39-.34,10.15,10.15,0,0,0,2.75-.82,2.46,2.46,0,0,1,1-.19,5.08,5.08,0,0,1,3.09,1.54,3,3,0,0,1,1.16,2.22c0,2.07-2.22,2.8-8.68,2.8-9.64,0-14.42-3.28-14.42-9.89a14.53,14.53,0,0,1,.87-5.06Zm-.67-15.29a7.11,7.11,0,0,0,4.48,1.35,24.79,24.79,0,0,0,9.84-2.31c1-.53,1-.53,1.54-.53,1.83,0,4.24,2,4.24,3.62,0,1.11-.58,1.54-2.6,1.83a29,29,0,0,0-5.79,1.45,33.16,33.16,0,0,0-7.52,3.33l-.34-.43c1.64-1.54,3.81-3.47,4.44-4H27.1a8.64,8.64,0,0,1-7.57-3.91Z"/><path class="cls-1" d="M22,301.88a16.84,16.84,0,0,1,6.08,2.46,5.63,5.63,0,0,1,2.36,4.1A2.64,2.64,0,0,1,28,311.19c-.53,0-.72-.1-1.74-.58a13.56,13.56,0,0,0-4.73-1.3c-2.8-.39-5.74-.68-6.7-.68a5,5,0,0,0-1.49.14,1,1,0,0,0-.68,1.06c0,.68.43,1.74,2.12,4.82.92,1.69,1,1.78,1.35,2.51,7.09-3.91,13-5.83,17.89-5.83,6.27,0,10.32,3.33,10.32,8.44A8.22,8.22,0,0,1,41,326.09a11.74,11.74,0,0,1-6.85,2A17.83,17.83,0,0,1,22.76,324l.29-.58a17.55,17.55,0,0,0,7.14,1.49c5.35,0,8.63-2.41,8.63-6.37,0-3.18-2.22-5.11-5.93-5.11-2.51,0-5,.72-8.63,2.51A47.25,47.25,0,0,0,17.5,320c2.07,3.86,4.05,7.91,5.69,11.67,1.93,4.48,2.65,6.85,2.65,9,0,2.51-1.54,4.44-3.62,4.44-.92,0-1.49-.53-1.83-1.59a23,23,0,0,1-.63-3.76,72,72,0,0,0-5.35-17.75,53.87,53.87,0,0,0-5,4c-1.11,1.11-1.64,1.35-2.56,1.35-2.6,0-5.93-3.62-5.93-6.41a3.3,3.3,0,0,1,.19-1,4.38,4.38,0,0,0,3.66,2.56c1.25,0,3.52-1,8.05-3.57a30.54,30.54,0,0,0-3.52-5.45c-1.16-1.25-1.3-1.54-1.3-2.36a4.57,4.57,0,0,1,4.48-4.29,4,4,0,0,1,1.78.39c.77.39,1,.39,3.28.39a43,43,0,0,0,6.75-.58c.82-.14,1-.29,1-.58a4.26,4.26,0,0,0-1-1.88,8.6,8.6,0,0,0-2.65-2.17Z"/><path class="cls-1" d="M16.35,390.95C21.46,388.1,24.74,385,27,380.87a29.87,29.87,0,0,0,3.13-13.94c0-3.76-.53-7.23-1.45-9.06s-1.88-2.56-3.28-2.56c-2.17,0-4.2,1.93-5.74,5.5a28.58,28.58,0,0,0-2.22,10.32A17.6,17.6,0,0,0,17.6,374c0,.63.1,1.25.1,1.45a2.23,2.23,0,0,1-2.22,2.41c-1.25,0-2.27-.77-3-2.31a19.44,19.44,0,0,1-1.4-7.86c0-3.76.48-7.18,1.93-13.6a17.51,17.51,0,0,0,.53-3.76c0-1.45-.92-2.65-2.7-3.57a3,3,0,0,1,1-.19,9.59,9.59,0,0,1,5.11,2.07c1.64,1.25,2.41,2.36,2.41,3.52a3.26,3.26,0,0,1-.82,2,24.4,24.4,0,0,0-4,12.78c0,.58,0,1.06.14,2.07h0c1.78-6.32,3.57-10,6-12.68a7.61,7.61,0,0,1,6-2.75c5.26,0,9,6,9,14.47a23.8,23.8,0,0,1-6.12,16.3c-3,3.28-6.75,5.3-13,7.14Z"/><path class="cls-1" d="M.39,413.66a13.87,13.87,0,0,0,2.51.34H6.12c1.21-1.3,1.59-1.74,2.8-3.09,1.78,1.3,2.27,1.69,3.91,3,.29.24.39.39.39.58,0,.39-.1.48-1.49,1.49v11.57a6.7,6.7,0,0,0,2.56,2.65c1.88,1.3,4.87,1.83,9.89,1.83,5.69,0,14.71-.43,22-1.06l0,.48a4.75,4.75,0,0,0-3.13,4.39c-.14.92-.29,1-1.4,1a7.34,7.34,0,0,0-.87,0c-1.21,0-3.09.1-5.4.1-7.28,0-11.57-.29-14.51-1.06-5.35-1.3-8-3.42-10-8-2.36,3.13-3.33,4.34-6.32,7.86v1c0,.77-.14,1.16-.53,1.16s-.39-.14-1.06-1.25c-.14-.29-.14-.29-1.54-2.94-.63-1.11-.77-1.45-1.35-2.51.43-.14.77-.29,1-.39a23,23,0,0,0,5.4-2.51V415H2.8a9.75,9.75,0,0,0-2.07.19Zm1.88-19.1c3.81,1.59,6.12,2.85,7.81,4.29s2,2.17,2,3.66a4.29,4.29,0,0,1-1.49,3.28,3.46,3.46,0,0,1-2.07,1,1.28,1.28,0,0,1-.92-.43c-.34-.48-.34-.48-.87-2.27a23.24,23.24,0,0,0-4.87-9.21Zm11.43,23.77a58,58,0,0,0,9.11-5.88,37.72,37.72,0,0,0,4.73-4.34,12.37,12.37,0,0,0-1-1.45,42.81,42.81,0,0,1-13.21,5.26l-.19-.39a47.2,47.2,0,0,0,8-5.26,29,29,0,0,0,3.81-3.52H17a12.78,12.78,0,0,0-2.51.24l-.43-1.54a17.29,17.29,0,0,0,2.94.29H29.41a32.86,32.86,0,0,0,2.84-8.44c1.35.39,2.56.67,3.23.87,3.13.82,4.05,1.21,4.05,1.74s-.39.63-2.31.82c-2.31,2-4,3.42-6,5h5.69c1.35-1.69,1.78-2.17,3.23-3.81,2.46,1.74,3.23,2.27,5.64,4.05q.29.29.29.43a.33.33,0,0,1-.34.34h-14a28.81,28.81,0,0,1-4.34,3.42A18.61,18.61,0,0,1,32,411.83c3.28-3.76,4.48-5.35,5.74-7.67,5.74,3,6.17,3.28,6.17,3.86,0,.34-.43.58-1,.58s-1,0-1.54-.1c-5.35,2.84-5.35,2.84-8.82,4.44a10.31,10.31,0,0,1,.58,1.35,39.7,39.7,0,0,1,7.57,3.86c2.65,1.69,3.71,3,3.71,4.68,0,2-1.54,4.63-2.75,4.63-.53,0-1-.58-1.45-1.93a28.75,28.75,0,0,0-3.42-6.32,22.14,22.14,0,0,0-3.23-3.42,23.78,23.78,0,0,1,.87,6.41c0,5.83-2.36,8.87-6.9,8.87-.63,0-.68,0-.82-.77a3.67,3.67,0,0,0-1.54-2.41,19,19,0,0,0-4.24-1.49l0-.63c1.83.24,5.64.48,6.85.48s1.45-.34,1.83-1.74a20.49,20.49,0,0,0,.48-4.77,25.82,25.82,0,0,1-4.77,2.8C21.7,424.32,19.43,425,14,426.34l-.24-.48a57.67,57.67,0,0,0,10.32-6.51,48,48,0,0,0,5.5-4.82,16.93,16.93,0,0,0-.39-2c-6.17,3.62-9.35,4.92-15.33,6.22Zm5.16-24.93c3.18,1,5.5,2,6.65,3a2.65,2.65,0,0,1,1.21,2.27,3.14,3.14,0,0,1-2.89,3.09c-.92,0-1.45-.43-1.74-1.49-1-3.23-1.64-4.39-3.52-6.41Z"/><path class="cls-1" d="M14.95,461.74c-2,9.16-2.51,11.86-2.51,13.5a15,15,0,0,0,.29,2.36,7.1,7.1,0,0,1,0,1c0,1.74-.92,2.89-2.36,2.89A3.05,3.05,0,0,1,7.86,480c-1.88-2.51-3-7.62-3-13.36A63.73,63.73,0,0,1,5.88,456,42.65,42.65,0,0,0,6.75,449a8,8,0,0,0-1.88-5c3.38.34,7.43,4.48,7.43,7.52a6.88,6.88,0,0,1-.92,3,31.86,31.86,0,0,0-2.84,12.73A12,12,0,0,0,9.6,473c.43-1,.43-1,1.16-2.75,1-2.46,1-2.46,2.75-6.56.29-.68.58-1.4.92-2.12Zm2.36-7.67A8.13,8.13,0,0,0,22.76,456a24.17,24.17,0,0,0,7-1.06,36.53,36.53,0,0,0-.63-7.81c-.58-1.64-1.59-2.31-4.63-3.09.92-.77,1.69-1,3.57-1A13.55,13.55,0,0,1,34,444.33a2.27,2.27,0,0,1,1.3,2,5.11,5.11,0,0,1-.48,2.07,20.87,20.87,0,0,0-.53,5.21,11.74,11.74,0,0,0,4.15-2.22,1.51,1.51,0,0,1,1-.34,5.35,5.35,0,0,1,2.51.72,1.85,1.85,0,0,1,1.21,1.64v0c0,.87-.72,1.45-2.56,2.27a51.91,51.91,0,0,1-6.22,1.88v2.17l0,5.88c0,6-1.11,9.93-3.66,13.07-2.27,2.8-5,4.58-9.89,6.46l-.34-.48a18.23,18.23,0,0,0,6.65-7.62c1.88-3.86,2.7-8.87,2.7-16.59,0-.53,0-1.11,0-2.12a26.39,26.39,0,0,1-4.44.48c-3.71,0-6.12-1.21-8.53-4.39Zm18.08-12.68a16.33,16.33,0,0,1,5.21,2.51,3.73,3.73,0,0,1,1.83,2.89c0,1.25-.87,2.51-1.74,2.51a1,1,0,0,1-.92-.58,14.59,14.59,0,0,1-.82-1.78,13.35,13.35,0,0,0-3.86-5.16ZM39.54,439a12.75,12.75,0,0,1,5.35,1.78c1.45.82,2.07,1.69,2.07,2.75,0,1.35-.77,2.56-1.64,2.56-.43,0-.77-.29-1.16-1.06a13.18,13.18,0,0,0-4.87-5.64Z"/><path class="cls-1" d="M18.13,487.78a19.31,19.31,0,0,1,5.5.92c2,.68,2.89,1.54,2.89,2.75,0,.63,0,.72-.77,2.41a17.84,17.84,0,0,0-1.06,6.36,1.66,1.66,0,0,0,1.16.43c1.78,0,4.77-1.35,7-3.18a2,2,0,0,1,1.4-.53,6.43,6.43,0,0,1,3.28,1.16,1.72,1.72,0,0,1,.87,1.49c0,.92-.72,1.54-2.75,2.36a20.58,20.58,0,0,1-6.46,1.4,6.62,6.62,0,0,1-4.63-1.74v1.64a113.93,113.93,0,0,0,.67,12.34c4.82.72,9.55,2.46,11.81,4.34a5.35,5.35,0,0,1,2.12,4.44c0,1.54-.77,2.65-1.88,2.65-.67,0-1.11-.24-2.17-1.21A24.41,24.41,0,0,0,25.7,520c0,.87,0,1.45,0,1.78,0,2.31-.48,4-1.54,5-1.4,1.4-4.29,2.27-7.72,2.27-5.79,0-9.45-2.41-9.45-6.22,0-4.48,5.26-7.62,12.68-7.62h1.06c-.14-9.21-.39-17.41-.68-21.46-.14-2.17-.53-3.09-1.59-3.86a6.32,6.32,0,0,0-3.23-1.11A3.84,3.84,0,0,1,18.13,487.78Zm-.92,31c-5.16,0-8.49,1.54-8.49,4,0,1.83,2,2.94,5.21,2.94,2.75,0,5.06-.77,5.93-2a4.37,4.37,0,0,0,.72-2.75c0-.29,0-1.3,0-1.69v-.14A17.85,17.85,0,0,0,17.21,518.79Z"/><path class="cls-1" d="M17.84,577.57c4.58-3.18,7-5.93,9-10a27,27,0,0,0,2.6-11.62c0-5-1.54-7.86-4.34-7.86-1.45,0-3.09.72-5,2.22a22.73,22.73,0,0,0-3.76,3.91c-1.06,1.25-1.59,1.59-2.6,1.59-2.51,0-5.5-3.52-5.5-6.46a3,3,0,0,1,.82-2.12c.58,2.07,1.78,3.28,3.33,3.28.77,0,1.83-.43,5.59-2.27s5.69-2.41,8-2.41A8.75,8.75,0,0,1,30.47,547c3,1.78,4.73,5.35,4.73,10A21,21,0,0,1,28,572.65,28,28,0,0,1,18.13,578Zm-2.7-44.75a11.17,11.17,0,0,0,4.92,2.36,18.57,18.57,0,0,0,4,.48,13.74,13.74,0,0,0,2.65-.24,2.37,2.37,0,0,1,.58,0c1.88,0,4.48,2.31,4.48,4A1.8,1.8,0,0,1,30.72,541c-.53.19-.72.24-3,.24-2.84,0-6,.58-12.63,2.36l-.24-.53c.92-.43.92-.43,2.36-1.16s1.59-.82,3.76-2c.68-.34.68-.34,1.49-.72a11.86,11.86,0,0,1-7.72-6.08Z"/><path class="cls-1" d="M22.23,609c-.24-7.72-.72-11.62-2.75-21.12a15.3,15.3,0,0,1-.29-2.27c0-1.93,1.3-2.8,4.05-2.8s4,.87,4,2.8c0,1,0,1-1,5.83a98.53,98.53,0,0,0-2,17.55Zm5,7.43a4,4,0,1,1-4-4A3.93,3.93,0,0,1,27.2,616.44Z"/></svg>